<svg version="1" xmlns="http://www.w3.org/2000/svg" width="845.333" height="845.333" viewBox="0 0 634.000000 634.000000"><path d="M109.9 104.2c-.1.7-.2 26.5-.4 57.3-.1 30.8-.3 56.3-.4 56.8 0 .4-1.9-.4-4.1-1.8-2.3-1.4-5.1-3-6.3-3.6-1.2-.5-4.4-2.3-7.2-3.9-2.7-1.7-5.9-3.5-7-4-1.1-.6-3.6-2-5.5-3.1-1.9-1.2-17-9.8-33.5-19.1-16.5-9.4-31.9-18.2-34.2-19.5L7 160.8v255l6.8 3.8c11.1 6.2 12 6.7 32.7 18.4 11 6.2 21.2 12.1 22.7 13.1 1.5 1.1 2.9 1.9 3.2 1.9.3 0 4 2 8.2 4.5 4.1 2.5 7.7 4.5 7.9 4.5.2 0 3.1 1.6 6.4 3.5 3.3 2 6.2 3.4 6.5 3.3.2-.2 1.2.4 2.2 1.3 1.1.9 6.6 4.2 12.4 7.4 5.8 3.2 11.3 6.5 12.3 7.3.9.8 1.7 1.2 1.7.8 0-.4 1.3.2 2.9 1.3 1.6 1.2 3.4 2.1 4 2.1.6 0 1.1.4 1.1 1 0 .5.4 1 .9 1 1.3 0 31.5 17.2 31.9 18.2.2.4 1.1.8 2.1.8.9 0 2.1.4 2.7.9.5.5 9.6 5.9 20.3 12l19.4 11 5.1-2.8c2.8-1.6 11-6.2 18.1-10.3 7.2-4.1 15.5-8.8 18.5-10.5 3-1.7 9.9-5.6 15.2-8.7 5.3-3.1 10.2-5.6 10.7-5.6.6 0 1.1-.5 1.1-1 0-.6.4-1 .9-1s7.9-4 16.6-8.9c14.3-8.2 16-8.9 17.9-7.6 6 3.7 37.9 21.5 38.7 21.5.5 0 .9.4.9 1 0 .5.4 1 1 1 .5 0 4.4 2 8.6 4.5 4.1 2.5 7.7 4.5 8 4.5.2 0 4.1 2.2 8.6 4.9 11.2 6.5 30.8 17.4 32.9 18.3 1.1.4 2.7-.1 4.2-1.3 1.4-1 2.7-1.9 3-1.9.2 0 6.5-3.4 13.8-7.6 7.4-4.2 15.2-8.6 17.4-9.9 8.7-4.9 12.9-7.3 37.5-21.3 14-8 28-15.9 31-17.5 3-1.6 6-3.3 6.5-3.7.6-.4 3.7-2.2 7-4 3.3-1.8 7.4-4.1 9-5 22.9-13.1 49.3-28.1 62.8-35.7l16.7-9.5V161l-4.7 2.7c-2.7 1.4-5.2 2.9-5.8 3.3-.5.4-3.7 2.2-7 4-3.3 1.8-7.3 4.1-9 5.1-1.6 1-5.7 3.2-9 5-3.3 1.7-6.5 3.5-7.1 4-.6.5-3.3 2.1-6 3.5-6.5 3.5-5.8 3.2-29.4 16.6-11.3 6.4-21.3 12-22.2 12.3-1.7.7-1.8-2.4-1.8-56.4 0-31.4-.3-57.1-.6-57.1-.5 0-30.6 16.9-36.9 20.7-1.1.7-2.7 1.5-3.5 1.9-.8.4-8.9 5-18 10.2-9.1 5.2-18.3 10.4-20.5 11.6-2.2 1.3-11 6.2-19.5 11.1-8.5 4.8-16.8 9.6-18.5 10.5-8.2 4.6-46.2 26.3-47.5 27.1-5.7 3.4-35.3 19.9-35.8 19.9-.3 0-1.3.7-2.3 1.6-.9.8-2.5 1.6-3.5 1.6-1.1.1-9.1-4-17.8-9-8.8-5.1-16.1-9.2-16.2-9.2-.2 0-3.3-1.8-6.9-4-3.6-2.2-6.8-4-7-4-.3 0-2.2-1-4.3-2.3-2-1.3-6.2-3.7-9.2-5.4-3-1.7-8.4-4.7-12-6.8-3.6-2-8.7-5-11.5-6.5-2.7-1.5-16.2-9.1-29.8-16.9-13.7-7.8-25.3-14.1-25.8-14.1s-.9-.3-.9-.8c0-.4-1-1.2-2.3-1.8-3.4-1.7-39.7-22.1-60.4-34-3-1.7-4.3-2.1-4.4-1.2zm25.5 36.3c4.2 2.5 7.9 4.5 8.1 4.5.3 0 3.4 1.8 7 4s6.7 4 6.9 4c.1 0 7 3.9 15.2 8.6 8.2 4.7 15.8 9 16.9 9.5 1.1.5 4.3 2.3 7 3.9 2.8 1.7 5.9 3.5 7 4 1.1.6 3.6 2 5.5 3.1 1.9 1.2 21.1 12.1 42.5 24.2 21.5 12.2 39.2 22.5 39.3 22.9.2.4 1.2.8 2.2.8.9 0 2.3.7 3 1.5.7.8 1.6 1.5 2 1.5.4 0 5 2.5 10.3 5.6l9.5 5.5 14.2-8c7.8-4.5 14.5-8.1 15.1-8.1.5 0 .9-.4.9-.9s.8-1.1 1.8-1.4c.9-.3 4.9-2.4 8.7-4.7 3.9-2.2 8.1-4.6 9.5-5.3 1.4-.6 2.7-1.4 3-1.7.4-.5 11.2-6.7 25.5-14.6 2.2-1.2 11.6-6.5 20.9-11.8 9.3-5.3 17.3-9.6 17.7-9.6.5 0 .9-.4.9-.9s.8-1.1 1.8-1.4c1.6-.6 3.4-1.5 20.2-11.2 11.5-6.5 15-8.5 21-11.8 3-1.6 6-3.3 6.5-3.7.6-.4 2.6-1.7 4.5-2.7 1.9-1.1 6.5-3.6 10.3-5.7 3.7-2.1 6.7-3.6 6.8-3.4.1.1.2 47 .3 104l.1 103.7-6.2 3.5c-3.4 2-6.7 3.6-7.3 3.6-.5 0-1 .3-1 .7 0 .5-2.6 2.1-5.8 3.8-3.1 1.6-7.3 3.9-9.2 5-1.9 1.2-5.5 3.3-8 4.7-2.5 1.4-16.2 9.2-30.5 17.3-14.3 8.1-27.6 15.7-29.5 16.8-1.9 1.1-5.5 3.1-8 4.5-2.5 1.3-7.1 4-10.3 5.8-3.2 1.9-6.1 3.4-6.3 3.4-.3 0-1.8.8-3.2 1.9-1.5 1-4.9 3.1-7.7 4.6-4.2 2.3-13 7.3-31.2 17.7-1.8 1-4.9 2.7-6.9 3.8-1.9 1.1-6.7 3.8-10.5 6-3.9 2.2-7.6 4-8.1 4-.6 0-7.9-3.9-16.2-8.7-8.3-4.7-17.6-10-20.6-11.6-3-1.7-8.4-4.8-11.9-6.9-3.4-2.1-6.5-3.8-6.7-3.8-.2 0-9.2-5.1-20.1-11.3-19.3-11-40.7-23.2-50.1-28.4-2.6-1.5-6.4-3.7-8.4-5-2.1-1.2-3.9-2.3-4.1-2.3-.2 0-6-3.2-12.8-7.1-6.8-3.9-14.7-8.4-17.5-10-2.8-1.5-8.9-5-13.5-7.6l-8.4-4.8-.1-104.3c0-57.3.1-104.2.2-104.2s3.7 2 7.8 4.5zm474.1 157.7l-.1 104.1-3.7 2.4c-2 1.2-6 3.6-8.9 5.2-6.7 3.6-55.1 31.1-59.8 34-1.9 1.1-4.2 2.4-5 2.8-.8.4-8.9 4.9-18 10.1-9.1 5.2-18.7 10.7-21.5 12.2-4.1 2.2-28.1 15.9-44.5 25.2-9.2 5.3-20 11.4-24.4 13.8l-4.9 2.8-4.7-2.8c-2.5-1.5-6.8-4-9.6-5.5-2.7-1.5-10.1-5.7-16.4-9.3-6.3-3.6-13.1-7.4-15-8.5-23-12.9-35-20.1-34.3-20.7 1.5-1.3 31.5-18 32.4-18 .5 0 .9-.4.9-.9s.8-1.1 1.8-1.4c.9-.3 4-1.9 6.7-3.5 2.8-1.6 8.6-4.9 13-7.4s9.6-5.5 11.5-6.5c6.6-3.8 40.5-23 43-24.4 1.4-.7 4.1-2.3 6-3.5 3.5-2.1 31.8-18.1 41.6-23.5 2.8-1.6 10.4-5.9 17-9.7l11.9-6.8.5-58.3.5-58.4 28-15.9c15.4-8.8 30.5-17.3 33.5-19 4.3-2.3 22.5-12.7 22.5-12.8v104.2zM46.4 206.3c9.9 5.7 27.5 15.7 39.1 22.2 11.6 6.5 21.7 12.4 22.5 13.1 1.4 1.2 1.6 8.2 1.5 58 0 36.4.4 57.2 1 58 .6.7 3.3 2.4 6 3.9 2.8 1.4 5.7 3 6.5 3.5 2.4 1.6 25.9 14.9 33 18.8 3.6 1.9 7.7 4.3 9.2 5.4 1.4 1 2.8 1.8 3.1 1.8.3 0 9.5 5.2 20.6 11.5 11 6.3 20.3 11.5 20.7 11.5.4 0 1.2.7 1.8 1.5.9 1.2 10.2 6.6 33.6 19.8 1.9 1 6.4 3.6 10 5.7 3.6 2.1 8.3 4.8 10.5 6 20.2 11.2 30.5 17.4 29.8 18.1-.4.4-3.9 2.5-7.8 4.7C276.3 476 227 504 221 507.6l-5.5 3.3-4-2.3c-2.2-1.3-6.7-3.8-10-5.6-3.3-1.8-9.3-5.3-13.3-7.7-4.1-2.4-7.5-4.3-7.7-4.3-.2 0-3.8-2-7.9-4.5-4.2-2.5-7.9-4.5-8.1-4.5-.3 0-3.4-1.8-7-4s-6.7-4-6.9-4c-.2 0-6.4-3.4-13.7-7.6-24.6-14.1-49.4-28.1-52.9-30-1.9-1.1-3.6-2.2-3.8-2.7-.2-.4-.7-.7-1.2-.7s-4.6-2.2-9.2-4.8c-4.6-2.6-9-5.1-9.8-5.5-.8-.4-3.1-1.7-5-2.8-1.9-1.1-9.5-5.5-16.7-9.6L25 402.8v-104c0-95.1.1-104 1.6-103.4.9.3 9.8 5.3 19.8 10.9z"/></svg>