<svg xmlns="http://www.w3.org/2000/svg" xmlns:xlink="http://www.w3.org/1999/xlink" viewBox="0 0 183.74 163.49"><defs><style>.cls-1{fill:none;}.cls-2{clip-path:url(#clip-path);}.cls-3{fill:#927262;}</style><clipPath id="clip-path" transform="translate(0 0)"><rect class="cls-1" width="183.74" height="163.49"/></clipPath></defs><title>Asset 7</title><g id="Layer_2" data-name="Layer 2"><g id="Layer_1-2" data-name="Layer 1"><g class="cls-2"><path class="cls-3" d="M151.19,20.15c-.23,3.64-5.66,3-6.33.17A8.86,8.86,0,0,1,146,13.6c3.43,1.73,5.31,4.19,5.18,6.55m-28.1-6.93c3,10.23-7.54,20.39-25.55,19.81-1.2,0-2.41-.13-3.6-.26,3.17-3,6.24-6.24,9.74-9.25,4.14.32,7.4-2.16,7.34-4.44a3.42,3.42,0,0,0-.16-.81,43.23,43.23,0,0,1,6.23-3.18,56.52,56.52,0,0,1,5.93-2ZM89.82,34.46c-14.26,13.09-39.6,12.21-46.89-1.1-4.81-8.81-2.84-18.21,3.38-24.1l.71.49c4.92,4,15.06,14,30.41,20.3-5.34,4.36-13.15,3.25-14.89,2C60.28,30.39,59,29,59,25.88c-.12-2-2.76-3-4.14-.44s1.64,9.35,9,9.9c5.71.43,11.22-.94,15.09-4.64A73,73,0,0,0,90.33,34ZM58.9,3.53a25.09,25.09,0,0,1,6.5.11c3,.71,7.11,2.37,6.5,6.11-.93,3.47-3.39,2.31-3.39,4.62s5.09,2.81,7.73-.82a4.81,4.81,0,0,0,.07-5.14c4.87,4.12,7.17,10.15,5.09,15.92a13.46,13.46,0,0,1-2.69,4.5,81.13,81.13,0,0,1-27.54-19c-.86-.91-1.71-1.71-2.56-2.47A22.24,22.24,0,0,1,58.9,3.53m39.58,9.52c2.62-8.61,17-9.85,22.7-3.29a39.66,39.66,0,0,0-11.7,6.66,5.21,5.21,0,0,0-5.72,0c-2.35,1.81-.47,4.46-.47,4.46s-6.6,0-4.81-7.85m-61,26.28c15.12,5.8,17.18,27.13,3.69,40.15A50.59,50.59,0,0,0,37.28,69.4a14.7,14.7,0,0,0,3.14-11.77c-.89-6.46-8.78-8.87-11.62-7.57s-1.62,3.57.64,3.62a8.42,8.42,0,0,1,7.16,2.86c1.31,1.28,2.65,6.64-.22,11.18-7.33-13.35-18.91-22.1-23.81-26.49,6.56-4.17,15.89-5.34,24.87-1.9M18,107.48c.36-.86.72-1.73,1.16-2.62a37.39,37.39,0,0,1,5.48-8.15,5.54,5.54,0,0,0,4.49-4.64C32.58,88.86,36.26,86,39.68,83c.07.57.15,1.13.18,1.69,1,15.67-10.19,25.1-21.88,22.81m-.9-21.56c8.92-1.73,9.05,4,9.05,4s-3.05-1.59-5.07.51a3.73,3.73,0,0,0,1.19,5.81,42.19,42.19,0,0,0-7.91,9.88c-8.18-4.58-7.25-17.71,2.74-20.24M28.46,73.3a19.63,19.63,0,0,1-18.35-3.9A6.92,6.92,0,0,0,16,69.17c4.06-2.44,3.32-6.88.68-6.8s-1.24,2.19-5.16,3.13c-4.26.66-6.29-2.9-7.2-5.49A16.7,16.7,0,0,1,4,54.33a17.29,17.29,0,0,1,6.31-11.39c.68.54,1.39,1.08,2.16,1.61,8.9,6.2,17.62,14.94,22.79,24.73a14.79,14.79,0,0,1-6.75,4M26.05,129c3.22.48,4.16,5.23,0,5.53-2.7.21-5.57-1.34-7.65-4.29A12.76,12.76,0,0,1,26.05,129M180.8,4.53c-3.26-.48-25.07-2.25-34.11,6.15-4.37-2.31-10.78-3.59-19.3-2.42-.45.06-.87.16-1.31.24a19.65,19.65,0,0,0-21.19-4.36c-12.06,4.45-10.74,15.93-4.33,18.65a7.37,7.37,0,0,0,1.22.37c-3,2.8-6.19,5.92-9.84,9.33A57.79,57.79,0,0,1,80.21,29.4a17.68,17.68,0,0,0,3.45-6.94C86.18,12.45,76.49.34,62.42,0A27.28,27.28,0,0,0,45.74,5.09C36.27-1.7,27.48-.19,23.55,4,18.7,9.1,20.81,18.17,20.81,18.17S10.69,15.94,5.14,20.49C1,23.9-1,32.1,7.55,40.54a20.52,20.52,0,0,0-7.5,17c.86,12.31,15,20.36,26.34,17.82A20.65,20.65,0,0,0,36,70.76a38.91,38.91,0,0,1,3.45,10.35c-3.73,3.32-7.19,6.25-10.3,8.94a6.93,6.93,0,0,0-.86-2.52C25,82,11.88,81.06,7,91.72,3.28,100,7.69,107,12.6,110.27a22.52,22.52,0,0,0-.9,3.85c-1,7.49.63,13.06,3.42,16.81-9.28,8.2-6.51,27.23-5.87,30.06.77,3.29,4.81,3.94,4.09-1.77s-3.54-12.13-1-20.81A14.4,14.4,0,0,1,16,132a14.27,14.27,0,0,0,5.86,4c4.2,1.5,8.3-.13,8.92-3.57S27.25,126,20.42,128a15.7,15.7,0,0,0-2.71,1.12c-2.25-3.91-3.21-9.77-1.29-17l.36.1c9.94,2.21,28.95-3.26,25.56-27.06-.2-1.33-.46-2.62-.75-3.89C46.78,76.37,51,70.9,52.06,62.8c2.48-18.89-11.17-28.63-26.53-28.62a28.18,28.18,0,0,0-15.46,4.46c-4.4-5.42-4.55-11.42-1.81-14.07,3.12-3,7.26-4.14,16-3.81-.56-7.67.58-11.34,4-14.15,2.78-2.3,9-2.38,14.89.68a20.71,20.71,0,0,0-6.49,15.83c.49,13.43,12.08,25.06,33.55,22.24,10-1.32,16.32-5.74,22-11,1.9.34,3.84.62,5.86.8,27.24,2.49,33.08-14.27,30.34-22.94l-.14-.39c6.78-1.13,12.39-.43,16.36,1.18a11.16,11.16,0,0,0-1.18,2.4c-2,6,1.63,9.57,5.52,8.91s5.62-4.3,3.78-7.92a13.32,13.32,0,0,0-4.83-5A17.93,17.93,0,0,1,155.13,8c9.82-2.54,17.34-.3,23.79.13s5.66-3.08,1.88-3.62" transform="translate(0 0)"/></g></g></g></svg>