<svg id="Layer_1" data-name="Layer 1" xmlns="http://www.w3.org/2000/svg" xmlns:xlink="http://www.w3.org/1999/xlink" viewBox="0 0 633.1 1040.42"><defs><style>.cls-1,.cls-4{fill:none;}.cls-2{clip-path:url(#clip-path);}.cls-3{fill:#927262;}.cls-4{stroke:#fff;stroke-miterlimit:10;stroke-width:1px;}</style><clipPath id="clip-path" transform="translate(-29.89 -24.85)"><rect class="cls-1" x="29.89" y="24.85" width="183.74" height="163.49"/></clipPath></defs><title>Corner Art</title><g class="cls-2"><path class="cls-3" d="M181.08,45c-.22,3.64-5.66,3-6.33.17a8.86,8.86,0,0,1,1.15-6.72c3.44,1.73,5.31,4.19,5.18,6.55M153,38.07c3,10.23-7.53,20.39-25.55,19.81-1.2,0-2.4-.13-3.6-.26,3.17-3,6.24-6.24,9.74-9.25,4.14.32,7.4-2.16,7.35-4.44a3.42,3.42,0,0,0-.17-.81A43.76,43.76,0,0,1,147,39.94a55.89,55.89,0,0,1,5.94-2ZM119.71,59.31c-14.26,13.09-39.6,12.21-46.88-1.1C68,49.4,70,40,76.2,34.11l.71.49c4.92,4,15.07,14,30.41,20.3-5.33,4.36-13.15,3.25-14.89,2-2.26-1.65-3.52-3.09-3.52-6.16-.12-2-2.76-3-4.14-.44s1.64,9.35,9,9.9c5.71.43,11.22-.94,15.1-4.64a72.6,72.6,0,0,0,11.31,3.29ZM88.79,28.38a25.08,25.08,0,0,1,6.5.11c3,.71,7.11,2.37,6.51,6.11-.94,3.47-3.39,2.31-3.39,4.62s5.08,2.81,7.72-.82a4.79,4.79,0,0,0,.07-5.14c4.87,4.12,7.17,10.15,5.09,15.92a13.46,13.46,0,0,1-2.69,4.5,81.22,81.22,0,0,1-27.54-19c-.86-.91-1.71-1.71-2.56-2.47a22.28,22.28,0,0,1,10.29-3.84m39.58,9.52c2.63-8.61,17-9.85,22.7-3.29a39.49,39.49,0,0,0-11.69,6.66,5.23,5.23,0,0,0-5.73,0c-2.35,1.81-.46,4.46-.46,4.46s-6.61,0-4.82-7.85m-61,26.28C82.46,70,84.51,91.31,71,104.33a50.59,50.59,0,0,0-3.85-10.08,14.67,14.67,0,0,0,3.14-11.77c-.89-6.46-8.78-8.87-11.62-7.57s-1.62,3.57.64,3.62a8.42,8.42,0,0,1,7.16,2.86c1.31,1.28,2.65,6.64-.22,11.18-7.33-13.35-18.91-22.1-23.81-26.49,6.56-4.17,15.89-5.34,24.87-1.9M47.88,132.33c.35-.86.71-1.73,1.15-2.62a37.39,37.39,0,0,1,5.48-8.15A5.54,5.54,0,0,0,59,116.92c3.47-3.21,7.16-6.09,10.57-9.09.07.57.15,1.13.18,1.69,1,15.67-10.19,25.1-21.87,22.81M47,110.77c8.92-1.73,9.05,4,9.05,4s-3.05-1.59-5.07.51a3.73,3.73,0,0,0,1.19,5.81,41.88,41.88,0,0,0-7.9,9.88C36.06,126.43,37,113.3,47,110.77M58.35,98.15A19.63,19.63,0,0,1,40,94.25,6.92,6.92,0,0,0,45.86,94c4.06-2.44,3.32-6.88.68-6.8s-1.23,2.19-5.16,3.13c-4.25.66-6.29-2.9-7.2-5.49a16.7,16.7,0,0,1-.34-5.68,17.33,17.33,0,0,1,6.31-11.39c.68.54,1.39,1.08,2.16,1.61,8.9,6.2,17.63,14.94,22.79,24.73a14.74,14.74,0,0,1-6.75,4m-2.41,55.69c3.22.48,4.16,5.23,0,5.53-2.7.21-5.57-1.34-7.65-4.29a12.76,12.76,0,0,1,7.62-1.24M210.7,29.38c-3.27-.48-25.08-2.25-34.11,6.15-4.38-2.31-10.78-3.59-19.31-2.42-.44.06-.87.16-1.3.24A19.66,19.66,0,0,0,134.78,29c-12.06,4.45-10.74,15.93-4.33,18.65a7.19,7.19,0,0,0,1.23.37c-3,2.8-6.2,5.92-9.85,9.33a57.79,57.79,0,0,1-11.73-3.09,17.68,17.68,0,0,0,3.45-6.94c2.52-10-7.17-22.12-21.24-22.45a27.23,27.23,0,0,0-16.67,5.08c-9.47-6.79-18.26-5.28-22.2-1.11C48.59,34,50.71,43,50.71,43S40.58,40.79,35,45.34c-4.15,3.41-6.13,11.61,2.41,20a20.52,20.52,0,0,0-7.5,17c.86,12.31,15,20.36,26.34,17.82a20.65,20.65,0,0,0,9.57-4.59A38.91,38.91,0,0,1,69.3,106c-3.73,3.32-7.18,6.25-10.3,8.94a6.57,6.57,0,0,0-.86-2.52c-3.25-5.55-16.37-6.47-21.21,4.19-3.76,8.27.66,15.23,5.56,18.55a22.52,22.52,0,0,0-.9,3.85c-1.05,7.49.63,13.06,3.42,16.81C35.73,164,38.5,183,39.14,185.84c.77,3.29,4.81,3.94,4.09-1.77s-3.53-12.13-1-20.81a14.4,14.4,0,0,1,3.64-6.4,14.27,14.27,0,0,0,5.86,4c4.2,1.5,8.3-.13,8.92-3.57s-3.53-6.5-10.36-4.53a15.7,15.7,0,0,0-2.71,1.12c-2.25-3.91-3.21-9.77-1.29-17l.36.1c9.94,2.21,29-3.26,25.56-27.06-.2-1.33-.46-2.62-.74-3.89,5.19-4.86,9.39-10.33,10.46-18.43C84.44,68.76,70.78,59,55.43,59A28.13,28.13,0,0,0,40,63.49c-4.41-5.42-4.56-11.42-1.82-14.07,3.13-3,7.26-4.14,16-3.81-.56-7.67.59-11.34,4-14.15,2.78-2.3,9-2.38,14.89.68A20.71,20.71,0,0,0,66.55,48C67.05,61.4,78.63,73,100.11,70.21c10-1.32,16.31-5.74,22-11,1.9.34,3.84.62,5.87.8,27.23,2.49,33.08-14.27,30.34-22.94l-.15-.39c6.79-1.13,12.39-.43,16.36,1.18a11.16,11.16,0,0,0-1.18,2.4c-2,6,1.63,9.57,5.53,8.91s5.61-4.3,3.77-7.92a13.36,13.36,0,0,0-4.82-5,17.88,17.88,0,0,1,7.16-3.4c9.83-2.54,17.34-.3,23.8.13s5.65-3.08,1.88-3.62" transform="translate(-29.89 -24.85)"/></g><path class="cls-4" d="M647.51,1054.78l7.49,5,7.49-5m0,10h-15v-10h15Z" transform="translate(-29.89 -24.85)"/></svg>