<svg id="Layer_1" data-name="Layer 1" xmlns="http://www.w3.org/2000/svg" xmlns:xlink="http://www.w3.org/1999/xlink" viewBox="0 0 749.82 386.98"><defs><style>.cls-1{fill:none;}.cls-2{clip-path:url(#clip-path);}.cls-3{clip-path:url(#clip-path-2);}.cls-4{opacity:0.09;}.cls-5{clip-path:url(#clip-path-3);}.cls-6{fill:white;}</style><clipPath id="clip-path" transform="translate(-28.77 -25.19)"><rect class="cls-1" x="28.77" y="25.19" width="749.82" height="386.98"/></clipPath><clipPath id="clip-path-2" transform="translate(-28.77 -25.19)"><rect class="cls-1" x="28.77" y="25.19" width="749.82" height="386.98"/></clipPath><clipPath id="clip-path-3" transform="translate(-28.77 -25.19)"><rect class="cls-1" x="18.27" y="17.15" width="770.83" height="395.63"/></clipPath></defs><title>Patterns and art</title><g class="cls-2"><g class="cls-3"><g class="cls-4"><g class="cls-5"><path class="cls-6" d="M197.37,202.32h0l6.37,10.2L244,276.94l8.82,14.11L244,305.16l-40.26,64.42-6.37,10.2h0l-9.57,15.31-8,12.8-17.59-28.14h0l-30.67-49.08-24.76-39.62,24.76-39.62,30.67-49.08h0l17.59-28.14,8,12.8Zm-93.86,88.73v0h0v0h0v0h0v0h0v0h0v0h0v0a1.53,1.53,0,0,0,.2.59Q116.34,312,129,332.18l40.26,64.42L178,410.71l.47.76a1.54,1.54,0,0,0,2.58,0l.47-.76q12.39-19.8,24.77-39.62l40.26-64.41q4.64-7.44,9.29-14.87a1.42,1.42,0,0,0,.2-.76v0h0v0h0v0h0v0h0v0h0v0a1.47,1.47,0,0,0-.2-.61q-4.65-7.43-9.29-14.87L206.33,211q-12.39-19.81-24.77-39.62h0l-.47-.76a1.55,1.55,0,0,0-2.58,0l-.47.76h0l-8.82,14.11L129,249.92q-12.63,20.18-25.24,40.37a1.43,1.43,0,0,0-.21.76" transform="translate(-28.77 -25.19)"/><path class="cls-6" d="M237.3,291.06l-19.51,31.21q-15.94,25.53-31.9,51l-6.09,9.75-18.69-29.91-31.9-51-6.91-11.05L129.21,280q15.94-25.51,31.9-51l18.69-29.91,6.09,9.75,31.9,51ZM126.63,278.49q-3.7,5.89-7.39,11.81a1.42,1.42,0,0,0-.2.64h0v0h0v0a1.43,1.43,0,0,0,.2.79l7.39,11.81,31.89,51,16.29,26.05h0l3.7,5.91a1.51,1.51,0,0,0,2.58,0l3.68-5.89h0l3.69-5.91q16-25.51,31.9-51,10-16,20-32l0-.07a1.24,1.24,0,0,0,.1-.2s0,0,0,0a1.43,1.43,0,0,0,.07-.28h0a.57.57,0,0,0,0-.13v0a.65.65,0,0,0,0-.14h0a1.28,1.28,0,0,0-.07-.28s0,0,0,0a1.24,1.24,0,0,0-.1-.2l0-.07q-10-16-20-32-15.94-25.51-31.9-51l-3.69-5.91h0l-3.68-5.88a1.51,1.51,0,0,0-2.58,0l-3.7,5.9h0l-16.29,26-31.89,51" transform="translate(-28.77 -25.19)"/><path class="cls-6" d="M179.8,223.89h0L216.73,283l5.05,8.07L184,351.46l-4.23,6.76-36.93-59.09q-2.52-4-5.05-8.08l37.75-60.4,4.23-6.76m-45,66.41a1.51,1.51,0,0,0,0,1.51Q153.89,322.38,173,353l5.52,8.83a1.52,1.52,0,0,0,2.58,0l38.22-61.16,5.52-8.83,0-.07a2,2,0,0,0,.1-.21l0,0a1.39,1.39,0,0,0,.07-.46v-.14h0a1.28,1.28,0,0,0-.07-.28.08.08,0,0,1,0,0,1.24,1.24,0,0,0-.1-.2.25.25,0,0,0,0-.07l-38.22-61.16-5.52-8.83a1.51,1.51,0,0,0-2.58,0l-38.22,61.16c-1.85,2.94-3.68,5.88-5.53,8.83" transform="translate(-28.77 -25.19)"/><path class="cls-6" d="M177.59,252.26h0l2.21-3.54,23.43,37.49,3,4.84q-12.12,19.41-24.25,38.8l-2.21,3.54L156.37,295.9l-3-4.85,24.25-38.79M175,331.36q1.74,2.81,3.5,5.6a1.51,1.51,0,0,0,2.58,0l24.72-39.55,3.5-5.6s0-.05,0-.07a2,2,0,0,0,.1-.21v0a1.17,1.17,0,0,0,.08-.46v-.14h0a2.29,2.29,0,0,0-.07-.28l0,0a1.24,1.24,0,0,0-.1-.2s0-.05,0-.07l-24.72-39.55q-1.74-2.81-3.5-5.61a1.52,1.52,0,0,0-2.58,0L153.79,284.7q-1.75,2.79-3.5,5.6a1.46,1.46,0,0,0,0,1.51L175,331.36" transform="translate(-28.77 -25.19)"/><path class="cls-6" d="M346.69,202.32h0l6.38,10.2,40.26,64.42,8.82,14.11-8.82,14.11-40.26,64.42-6.38,10.2h0l-9.57,15.31q-4,6.41-8,12.8l-17.59-28.14h0l-30.67-49.08L256.1,291.05l24.76-39.62,30.67-49.08h0l17.59-28.14q4,6.4,8,12.8Zm-93.86,88.73v0h0v0h0v0h0v0h0v0h0v0h0v0a1.38,1.38,0,0,0,.2.59l25.23,40.37,40.26,64.42,8.82,14.11.48.76a1.4,1.4,0,0,0,1.28.7,1.43,1.43,0,0,0,1.3-.7l.47-.76,24.76-39.62,40.26-64.41,9.3-14.87a1.51,1.51,0,0,0,.2-.76v0h0v0h0v0h0v0h0v0h0v0a1.45,1.45,0,0,0-.19-.61l-9.3-14.87L355.64,211l-24.76-39.62h0l-.47-.76a1.4,1.4,0,0,0-1.3-.69,1.37,1.37,0,0,0-1.28.69l-.48.76h0l-8.82,14.11-40.26,64.42L253,290.29a1.43,1.43,0,0,0-.21.76" transform="translate(-28.77 -25.19)"/><path class="cls-6" d="M386.61,291.06l-19.5,31.21-31.9,51-6.09,9.75q-9.35-15-18.7-29.91l-31.89-51-6.91-11.05L278.53,280l31.89-51,18.7-29.91,6.09,9.75,31.89,51ZM275.94,278.49l-7.38,11.81a1.42,1.42,0,0,0-.2.64h0v0h0v0a1.53,1.53,0,0,0,.21.79l7.38,11.81,31.9,51,16.28,26.05h0l3.7,5.91a1.51,1.51,0,0,0,2.58,0l3.68-5.89h0l3.69-5.91,31.9-51,20-32a.25.25,0,0,0,0-.07,1.24,1.24,0,0,0,.1-.2l0,0a2.86,2.86,0,0,0,.07-.28h0v-.32h0a2.29,2.29,0,0,0-.07-.28l0,0a1.24,1.24,0,0,0-.1-.2.25.25,0,0,0,0-.07l-20-32-31.9-51-3.69-5.91h0l-3.68-5.88a1.51,1.51,0,0,0-2.58,0l-3.7,5.9h0l-16.28,26-31.9,51" transform="translate(-28.77 -25.19)"/><path class="cls-6" d="M329.12,223.89h0L366.05,283q2.52,4,5.05,8.07l-37.75,60.41-4.23,6.76-36.93-59.09q-2.54-4-5.05-8.08,18.87-30.19,37.75-60.4l4.23-6.76m-45,66.41a1.51,1.51,0,0,0,0,1.51L322.3,353l5.53,8.83a1.52,1.52,0,0,0,2.58,0l38.22-61.16,5.52-8.83s0-.05,0-.07a2,2,0,0,0,.1-.21v0a1.17,1.17,0,0,0,.08-.46v-.14h0a.89.89,0,0,0-.07-.28.08.08,0,0,0,0,0,.72.72,0,0,0-.09-.2s0-.05,0-.07l-38.22-61.16-5.52-8.83a1.51,1.51,0,0,0-2.58,0q-19.12,30.57-38.23,61.16l-5.52,8.83" transform="translate(-28.77 -25.19)"/><path class="cls-6" d="M326.91,252.26h0c.73-1.18,1.47-2.36,2.21-3.54l23.42,37.49c1,1.61,2,3.23,3,4.84l-24.25,38.8c-.74,1.18-1.48,2.36-2.21,3.54L305.69,295.9l-3-4.85q12.12-19.4,24.25-38.79m-2.59,79.1,3.51,5.6a1.51,1.51,0,0,0,2.58,0l24.72-39.55,3.5-5.6,0-.07a1.06,1.06,0,0,0,.11-.21v0a1.17,1.17,0,0,0,.08-.46.71.71,0,0,0,0-.14h0a.89.89,0,0,0-.07-.28.08.08,0,0,0,0,0l-.09-.2s0-.05,0-.07l-24.72-39.55-3.5-5.61a1.52,1.52,0,0,0-2.58,0q-12.37,19.78-24.72,39.56l-3.51,5.6a1.51,1.51,0,0,0,0,1.51l24.72,39.55" transform="translate(-28.77 -25.19)"/><path class="cls-6" d="M496,202.32h0q3.18,5.1,6.38,10.2l40.26,64.42,8.81,14.11-8.81,14.11-40.26,64.42q-3.19,5.1-6.38,10.2h0l-9.57,15.31q-4,6.41-8,12.8l-17.59-28.14h0l-30.68-49.08L405.4,291.05l24.76-39.62,30.68-49.08h0l17.59-28.14q4,6.4,8,12.8Zm-93.85,88.73v0h0v0h0v0h0v0h0v0h0v0h0v0a1.38,1.38,0,0,0,.2.59l25.23,40.37,40.26,64.42,8.82,14.11.47.76a1.54,1.54,0,0,0,2.58,0l.48-.76L505,371.09l40.26-64.41q4.65-7.44,9.29-14.87a1.43,1.43,0,0,0,.21-.76v0h0v0h0v0h0v0h0v0h0v0a1.47,1.47,0,0,0-.2-.61q-4.65-7.43-9.29-14.87L505,211l-24.76-39.62h0l-.47-.76a1.55,1.55,0,0,0-2.58,0l-.47.76h0l-8.82,14.11-40.26,64.42-25.24,40.37a1.51,1.51,0,0,0-.2.76" transform="translate(-28.77 -25.19)"/><path class="cls-6" d="M535.92,291.06l-19.51,31.21q-15.94,25.53-31.9,51l-6.09,9.75-18.69-29.91q-15.94-25.53-31.9-51l-6.91-11.05L427.83,280l31.9-51,18.69-29.91,6.09,9.75q16,25.51,31.9,51ZM425.25,278.49l-7.38,11.81a1.3,1.3,0,0,0-.2.64h0v0h0v0a1.36,1.36,0,0,0,.21.79l7.38,11.81q15.94,25.51,31.9,51l16.28,26.05h0l3.69,5.91a1.51,1.51,0,0,0,2.58,0l3.69-5.89h0q1.85-3,3.7-5.91l31.89-51q10-16,20-32s0-.05,0-.07l.09-.2a.08.08,0,0,0,0,0,1,1,0,0,0,.07-.28h0a.57.57,0,0,0,0-.13v-.19h0a.89.89,0,0,0-.07-.28.08.08,0,0,0,0,0,1.21,1.21,0,0,0-.09-.2s0-.05,0-.07l-20-32q-16-25.51-31.9-51l-3.7-5.91h0l-3.69-5.88a1.51,1.51,0,0,0-2.58,0l-3.69,5.9h0l-16.28,26q-16,25.52-31.9,51" transform="translate(-28.77 -25.19)"/><path class="cls-6" d="M478.42,223.89h0L515.35,283q2.53,4,5,8.07l-37.75,60.41-4.23,6.76-36.93-59.09-5.05-8.08q18.88-30.19,37.75-60.4l4.23-6.76m-45,66.41a1.46,1.46,0,0,0,0,1.51L471.61,353l5.52,8.83a1.52,1.52,0,0,0,2.58,0l38.23-61.16,5.52-8.83,0-.07a2.12,2.12,0,0,0,.11-.21v0a1.39,1.39,0,0,0,.08-.46.71.71,0,0,0,0-.14h0a1.28,1.28,0,0,0-.07-.28.08.08,0,0,0,0,0,1.24,1.24,0,0,0-.1-.2l0-.07-38.23-61.16c-1.84-2.94-3.67-5.89-5.52-8.83a1.51,1.51,0,0,0-2.58,0l-38.22,61.16-5.52,8.83" transform="translate(-28.77 -25.19)"/><path class="cls-6" d="M476.21,252.26h0c.74-1.18,1.48-2.36,2.21-3.54l23.43,37.49,3,4.84q-12.12,19.41-24.25,38.8c-.73,1.18-1.47,2.36-2.21,3.54Q466.71,314.64,455,295.9c-1-1.61-2-3.23-3-4.85l24.24-38.79m-2.58,79.1c1.17,1.87,2.33,3.74,3.5,5.6a1.51,1.51,0,0,0,2.58,0l24.72-39.55,3.51-5.6,0-.07a2,2,0,0,0,.1-.21l0,0a1.17,1.17,0,0,0,.07-.46.65.65,0,0,0,0-.14h0a1.28,1.28,0,0,0-.07-.28s0,0,0,0a1.24,1.24,0,0,0-.1-.2l0-.07-24.72-39.55-3.51-5.61a1.52,1.52,0,0,0-2.58,0L452.41,284.7c-1.17,1.86-2.33,3.73-3.5,5.6a1.51,1.51,0,0,0,0,1.51l24.72,39.55" transform="translate(-28.77 -25.19)"/><path class="cls-6" d="M421.25,57.57h0q3.18,5.1,6.37,10.21l40.26,64.41,8.82,14.11-8.82,14.11-40.26,64.42L421.25,235h0l-9.57,15.31-8,12.8L386.09,235h0l-30.67-49.08L330.66,146.3l24.76-39.62Q370.75,82.14,386.1,57.6h0l17.59-28.15,8,12.8ZM327.4,146.31h0v0h0v0h0v0h0a1.33,1.33,0,0,0,.19.59l25.24,40.38,40.26,64.41L401.92,266l.47.76a1.54,1.54,0,0,0,2.58,0c.16-.25.32-.5.47-.76q12.39-19.8,24.77-39.62l40.26-64.41q4.63-7.44,9.29-14.87a1.43,1.43,0,0,0,.21-.76v0h0v0h0v0h0v0h0v0h0a1.46,1.46,0,0,0-.2-.62q-4.65-7.42-9.29-14.87L430.21,66.26,405.44,26.64h0l-.47-.75a1.38,1.38,0,0,0-1.29-.7,1.41,1.41,0,0,0-1.29.7l-.47.75h0L393.1,40.75l-40.26,64.42L327.6,145.54a1.39,1.39,0,0,0-.2.77" transform="translate(-28.77 -25.19)"/><path class="cls-6" d="M461.18,146.31l-19.51,31.22-31.9,51-6.09,9.75L385,208.4q-16-25.52-31.9-51l-6.91-11.05,6.91-11.05q15.95-25.51,31.9-51l18.69-29.91,6.09,9.75q15.94,25.51,31.9,51ZM350.51,133.74l-7.39,11.81a1.55,1.55,0,0,0-.2.64h0v0h0v0h0a1.43,1.43,0,0,0,.2.79l7.39,11.81,31.89,51L398.69,236h0l3.69,5.91a1.51,1.51,0,0,0,2.58,0l3.68-5.88h0l3.69-5.91q16-25.52,31.9-51l20-32,0-.07a1.24,1.24,0,0,0,.1-.2.08.08,0,0,0,0,0,1.28,1.28,0,0,0,.07-.28h0a.56.56,0,0,0,0-.13v0a.75.75,0,0,0,0-.15h0a1.43,1.43,0,0,0-.07-.28.08.08,0,0,0,0,0,1.24,1.24,0,0,0-.1-.2l0-.07-20-32q-15.94-25.51-31.9-51l-3.69-5.91h0L405,50.74a1.51,1.51,0,0,0-2.58,0l-3.69,5.91h0L382.4,82.7l-31.89,51" transform="translate(-28.77 -25.19)"/><path class="cls-6" d="M403.68,79.14h0l36.93,59.09q2.53,4,5.05,8.07l-37.75,60.41-4.23,6.76-36.93-59.09q-2.52-4-5.05-8.08,18.87-30.2,37.75-60.4l4.23-6.76m-45,66.41a1.46,1.46,0,0,0,0,1.51l38.22,61.16,5.52,8.83a1.51,1.51,0,0,0,2.58,0l38.23-61.16,5.52-8.83,0-.07a2,2,0,0,0,.1-.21l0,0a1.37,1.37,0,0,0,.07-.45.75.75,0,0,0,0-.15h0a1.28,1.28,0,0,0-.07-.28.08.08,0,0,1,0,0,1.24,1.24,0,0,0-.1-.2l0-.07L410.49,84.39,405,75.56a1.51,1.51,0,0,0-2.58,0l-38.22,61.16-5.52,8.83" transform="translate(-28.77 -25.19)"/><path class="cls-6" d="M401.47,107.51h0l2.21-3.54,23.43,37.49,3,4.84Q418,165.71,405.89,185.1l-2.21,3.54-23.43-37.49-3-4.85q12.13-19.4,24.25-38.79m-2.58,79.1q1.74,2.8,3.5,5.6a1.51,1.51,0,0,0,2.58,0l24.72-39.55c1.17-1.87,2.34-3.73,3.5-5.6,0,0,0-.05,0-.07a2,2,0,0,0,.1-.21l0,0a1.37,1.37,0,0,0,.07-.45v-.15h0a2.86,2.86,0,0,0-.07-.28.08.08,0,0,1,0,0,1.24,1.24,0,0,0-.1-.2.25.25,0,0,0,0-.07L408.47,106q-1.74-2.81-3.5-5.6a1.51,1.51,0,0,0-2.58,0L377.67,140c-1.17,1.86-2.33,3.73-3.5,5.6a1.46,1.46,0,0,0,0,1.51l24.72,39.55" transform="translate(-28.77 -25.19)"/><path class="cls-6" d="M570.57,57.57h0q3.2,5.1,6.38,10.21l40.26,64.41L626,146.3l-8.82,14.11-40.26,64.42L570.56,235h0L561,250.34l-8,12.8L535.41,235h0l-30.67-49.08L480,146.3l24.76-39.62L535.41,57.6h0L553,29.46q4,6.4,8,12.8Zm-93.86,88.74h0v0h0v0h0v0h0a1.48,1.48,0,0,0,.2.59l25.23,40.38,40.26,64.41q4.41,7.07,8.83,14.11c.15.26.31.51.47.76a1.54,1.54,0,0,0,2.58,0l.47-.76q12.39-19.8,24.76-39.62l40.26-64.41,9.3-14.87a1.42,1.42,0,0,0,.2-.76v0h0v0h0v0h0v0h0v0h0a1.46,1.46,0,0,0-.2-.62l-9.3-14.87L579.52,66.26,554.76,26.64h0l-.47-.75a1.54,1.54,0,0,0-2.58,0l-.47.75h0l-8.82,14.11-40.26,64.42-25.23,40.37a1.49,1.49,0,0,0-.21.77" transform="translate(-28.77 -25.19)"/><path class="cls-6" d="M610.5,146.31,591,177.53q-16,25.51-31.9,51L553,238.31,534.31,208.4q-16-25.52-31.9-51l-6.91-11.05,6.91-11.05,31.89-51q9.36-15,18.7-29.91l6.09,9.75,31.9,51ZM499.82,133.74l-7.38,11.81a1.42,1.42,0,0,0-.2.64h0v0h0v0h0a1.43,1.43,0,0,0,.2.79l7.38,11.81q16,25.51,31.9,51L548,236h0l3.7,5.91a1.51,1.51,0,0,0,2.58,0L558,236h0l3.69-5.91q16-25.52,31.9-51l20-32a.25.25,0,0,0,0-.07,1.24,1.24,0,0,0,.1-.2.08.08,0,0,1,0,0,2.29,2.29,0,0,0,.07-.28h0v-.17a.75.75,0,0,0,0-.15h0a1.43,1.43,0,0,0-.07-.28.08.08,0,0,1,0,0,1.24,1.24,0,0,0-.1-.2l0-.07q-10-16-20-32-15.95-25.51-31.9-51L558,56.63h0l-3.68-5.89a1.51,1.51,0,0,0-2.58,0L548,56.65h0L531.72,82.7q-15.94,25.51-31.9,51" transform="translate(-28.77 -25.19)"/><path class="cls-6" d="M553,79.14h0l36.93,59.09L595,146.3l-37.75,60.41L553,213.47l-36.93-59.09q-2.54-4-5.05-8.08,18.87-30.2,37.75-60.4L553,79.14m-45,66.41a1.51,1.51,0,0,0,0,1.51l38.23,61.16,5.52,8.83a1.51,1.51,0,0,0,2.58,0l38.22-61.16,5.52-8.83s0-.05,0-.07a2,2,0,0,0,.1-.21,0,0,0,0,0,0,0,1.16,1.16,0,0,0,.08-.45v-.15h0a2.29,2.29,0,0,0-.07-.28.08.08,0,0,1,0,0,1.24,1.24,0,0,0-.1-.2s0-.05,0-.07L559.81,84.39l-5.52-8.83a1.51,1.51,0,0,0-2.58,0l-38.23,61.16L508,145.55" transform="translate(-28.77 -25.19)"/><path class="cls-6" d="M550.79,107.51h0c.73-1.18,1.47-2.36,2.21-3.54l23.43,37.49,3,4.84-24.25,38.8c-.74,1.18-1.48,2.36-2.21,3.54l-23.43-37.49-3-4.85,24.25-38.79m-2.59,79.1,3.51,5.6a1.51,1.51,0,0,0,2.58,0L579,152.66l3.5-5.6s0-.05,0-.07a2,2,0,0,0,.1-.21v0a1.16,1.16,0,0,0,.08-.45v-.15h0a1,1,0,0,0-.07-.28.08.08,0,0,0,0,0,.72.72,0,0,0-.09-.2s0-.05,0-.07L557.79,106c-1.17-1.87-2.33-3.74-3.5-5.6a1.51,1.51,0,0,0-2.58,0L527,140q-1.75,2.79-3.5,5.6a1.46,1.46,0,0,0,0,1.51l24.71,39.55" transform="translate(-28.77 -25.19)"/><path class="cls-6" d="M122.63,57.57h0L129,67.78l40.26,64.41,8.82,14.11-8.82,14.11L129,224.83,122.62,235h0l-9.57,15.31q-4,6.41-8,12.8L87.47,235h0L56.8,185.92,32,146.3,56.8,106.68,87.47,57.6h0l17.59-28.15q4,6.4,8,12.8ZM28.77,146.31h0v0h0v0h0v0h0a1.48,1.48,0,0,0,.2.59l25.23,40.38,40.26,64.41L103.29,266l.48.76a1.4,1.4,0,0,0,1.29.7,1.42,1.42,0,0,0,1.29-.7l.47-.76q12.39-19.8,24.76-39.62l40.26-64.41,9.3-14.87a1.42,1.42,0,0,0,.2-.76v0h0v0h0v0h0v0h0v0h0a1.46,1.46,0,0,0-.2-.62l-9.3-14.87L131.58,66.26,106.82,26.64h0l-.47-.75a1.54,1.54,0,0,0-2.58,0l-.48.75h0L94.47,40.75,54.21,105.17,29,145.54a1.49,1.49,0,0,0-.21.77" transform="translate(-28.77 -25.19)"/><path class="cls-6" d="M162.56,146.31l-19.51,31.22q-16,25.51-31.9,51l-6.09,9.75q-9.34-15-18.7-29.91l-31.89-51-6.91-11.05,6.91-11.05,31.89-51q9.36-15,18.7-29.91l6.09,9.75,31.9,51ZM51.88,133.74,44.5,145.55a1.42,1.42,0,0,0-.2.64h0v0h0v0h0a1.53,1.53,0,0,0,.21.79l7.38,11.81q16,25.51,31.9,51L100.06,236h0l3.7,5.91a1.51,1.51,0,0,0,2.58,0L110,236h0l3.69-5.91,31.9-51,20-32a.25.25,0,0,0,0-.07,1.24,1.24,0,0,0,.1-.2.08.08,0,0,1,0,0,2.29,2.29,0,0,0,.07-.28h0v-.32h0a2.86,2.86,0,0,0-.07-.28.08.08,0,0,1,0,0,1.24,1.24,0,0,0-.1-.2.25.25,0,0,0,0-.07l-20-32-31.9-51L110,56.63h0l-3.68-5.89a1.51,1.51,0,0,0-2.58,0l-3.7,5.91h0L83.78,82.7q-15.94,25.51-31.9,51" transform="translate(-28.77 -25.19)"/><path class="cls-6" d="M105.06,79.14h0L142,138.23q2.52,4,5,8.07l-37.75,60.41-4.23,6.76L68.13,154.38q-2.53-4-5-8.08l37.75-60.4,4.23-6.76M60,145.55a1.51,1.51,0,0,0,0,1.51l38.23,61.16,5.52,8.83a1.51,1.51,0,0,0,2.58,0l38.22-61.16,5.52-8.83s0-.05,0-.07a2,2,0,0,0,.1-.21v0a1.16,1.16,0,0,0,.08-.45v-.15h0a1.29,1.29,0,0,0-.08-.28s0,0,0,0a1.24,1.24,0,0,0-.1-.2s0-.05,0-.07L111.87,84.39l-5.52-8.83a1.51,1.51,0,0,0-2.58,0L65.54,136.72,60,145.55" transform="translate(-28.77 -25.19)"/><path class="cls-6" d="M102.85,107.51h0c.73-1.18,1.47-2.36,2.21-3.54l23.43,37.49,3,4.84-24.25,38.8c-.74,1.18-1.48,2.36-2.21,3.54L81.63,151.15l-3-4.85q12.12-19.4,24.25-38.79m-2.59,79.1,3.51,5.6a1.51,1.51,0,0,0,2.58,0l24.72-39.55,3.5-5.6,0-.07a1.06,1.06,0,0,0,.11-.21v0a1.16,1.16,0,0,0,.08-.45v-.15h0a1,1,0,0,0-.07-.28.08.08,0,0,0,0,0,1.21,1.21,0,0,0-.09-.2s0-.05,0-.07L109.85,106c-1.17-1.87-2.33-3.74-3.5-5.6a1.51,1.51,0,0,0-2.58,0L79.05,140l-3.51,5.6a1.51,1.51,0,0,0,0,1.51l24.72,39.55" transform="translate(-28.77 -25.19)"/><path class="cls-6" d="M271.94,57.57h0l6.38,10.21,40.26,64.41,8.82,14.11-8.82,14.11-40.26,64.42L271.94,235h0l-9.56,15.31-8,12.8L236.78,235h0l-30.68-49.08L181.35,146.3l24.76-39.62L236.79,57.6h0l17.59-28.15q4,6.4,8,12.8Zm-93.85,88.74h0v0h0v0h0v0h0a1.34,1.34,0,0,0,.2.59l25.23,40.38,40.26,64.41L252.61,266l.47.76a1.55,1.55,0,0,0,2.59,0l.47-.76,24.76-39.62,40.26-64.41q4.65-7.44,9.29-14.87a1.43,1.43,0,0,0,.21-.76v0h0v0h0v0h0v0h0v0h0a1.34,1.34,0,0,0-.2-.62q-4.65-7.42-9.29-14.87L280.9,66.26,256.14,26.64h0l-.47-.75a1.55,1.55,0,0,0-2.59,0l-.47.75h0l-8.82,14.11-40.26,64.42L178.3,145.54a1.49,1.49,0,0,0-.21.77" transform="translate(-28.77 -25.19)"/><path class="cls-6" d="M311.87,146.31l-19.51,31.22-31.89,51q-3,4.88-6.1,9.75L235.68,208.4q-15.94-25.52-31.9-51l-6.9-11.05,6.9-11.05q16-25.51,31.9-51l18.69-29.91,6.09,9.75q16,25.51,31.9,51ZM201.2,133.74l-7.38,11.81a1.3,1.3,0,0,0-.2.64h0v0h0v0h0a1.44,1.44,0,0,0,.21.79l7.38,11.81,31.9,51L249.38,236h0l3.69,5.91a1.52,1.52,0,0,0,2.59,0l3.68-5.88h0l3.7-5.91q15.94-25.52,31.9-51l20-32s0,0,0-.07a1.21,1.21,0,0,0,.09-.2.08.08,0,0,0,0,0,.89.89,0,0,0,.07-.28h0v-.32h0a1,1,0,0,0-.07-.28.08.08,0,0,0,0,0,.72.72,0,0,0-.09-.2s0-.05,0-.07l-20-32q-16-25.51-31.9-51-1.85-3-3.7-5.91h0l-3.68-5.89a1.52,1.52,0,0,0-2.59,0l-3.69,5.91h0L233.1,82.7l-31.9,51" transform="translate(-28.77 -25.19)"/><path class="cls-6" d="M254.37,79.14h0q18.48,29.53,36.94,59.09l5,8.07L258.6,206.71l-4.23,6.76-36.93-59.09-5.05-8.08,37.76-60.4,4.22-6.76m-45,66.41a1.51,1.51,0,0,0,0,1.51l38.22,61.16,5.52,8.83a1.52,1.52,0,0,0,2.59,0l38.22-61.16,5.52-8.83,0-.07a2.12,2.12,0,0,0,.11-.21v0a1.38,1.38,0,0,0,.08-.45.76.76,0,0,0,0-.15h0a.89.89,0,0,0-.07-.28.08.08,0,0,0,0,0,1.21,1.21,0,0,0-.09-.2.25.25,0,0,1,0-.07L261.19,84.39l-5.52-8.83a1.52,1.52,0,0,0-2.59,0l-38.22,61.16-5.52,8.83" transform="translate(-28.77 -25.19)"/><path class="cls-6" d="M252.16,107.51h0c.74-1.18,1.48-2.36,2.21-3.54l23.43,37.49,3,4.84q-12.12,19.41-24.25,38.8c-.73,1.18-1.47,2.36-2.21,3.54q-11.7-18.75-23.42-37.49l-3-4.85,24.24-38.79m-2.58,79.1,3.5,5.6a1.52,1.52,0,0,0,2.59,0l24.72-39.55c1.16-1.87,2.33-3.73,3.5-5.6l0-.07a2.12,2.12,0,0,0,.11-.21v0a1.15,1.15,0,0,0,.07-.45.75.75,0,0,0,0-.15h0a1.43,1.43,0,0,0-.07-.28s0,0,0,0a1.24,1.24,0,0,0-.1-.2l0-.07L259.17,106l-3.5-5.6a1.52,1.52,0,0,0-2.59,0L228.36,140l-3.5,5.6a1.51,1.51,0,0,0,0,1.51l24.72,39.55" transform="translate(-28.77 -25.19)"/><path class="cls-6" d="M719.87,57.57h0l6.38,10.21,40.26,64.41,8.82,14.11-8.82,14.11-40.26,64.42L719.87,235h0l-9.56,15.31-8,12.8L684.71,235h0L654,185.92,629.28,146.3,654,106.68,684.72,57.6h0L702.3,29.46l8,12.8ZM626,146.31h0v0h0v0h0v0h0a1.34,1.34,0,0,0,.2.59l25.23,40.38,40.26,64.41L700.54,266l.47.76a1.55,1.55,0,0,0,2.59,0l.47-.76,24.76-39.62,40.26-64.41q4.65-7.44,9.29-14.87a1.43,1.43,0,0,0,.21-.76v0h0v0h0v0h0v0h0v0h0a1.34,1.34,0,0,0-.2-.62l-9.29-14.87L728.83,66.26,704.07,26.64h0l-.47-.75a1.55,1.55,0,0,0-2.59,0l-.47.75h0l-8.82,14.11-40.26,64.42-25.23,40.37a1.49,1.49,0,0,0-.21.77" transform="translate(-28.77 -25.19)"/><path class="cls-6" d="M759.8,146.31l-19.51,31.22-31.89,51-6.1,9.75L683.61,208.4q-15.95-25.52-31.9-51l-6.9-11.05,6.9-11.05q16-25.51,31.9-51L702.3,54.31q3,4.88,6.1,9.75l31.89,51ZM649.13,133.74l-7.38,11.81a1.3,1.3,0,0,0-.2.64h0v0h0v0h0a1.44,1.44,0,0,0,.21.79l7.38,11.81,31.9,51L697.31,236h0l3.69,5.91a1.52,1.52,0,0,0,2.59,0l3.68-5.88h0q1.86-3,3.7-5.91,15.94-25.52,31.9-51l20-32s0,0,0-.07a1.21,1.21,0,0,0,.09-.2.08.08,0,0,0,0,0,.89.89,0,0,0,.07-.28h0v-.32h0a1,1,0,0,0-.07-.28.08.08,0,0,0,0,0,.72.72,0,0,0-.09-.2s0-.05,0-.07l-20-32q-16-25.51-31.9-51-1.85-3-3.7-5.91h0l-3.68-5.89a1.52,1.52,0,0,0-2.59,0l-3.69,5.91h0L681,82.7l-31.9,51" transform="translate(-28.77 -25.19)"/><path class="cls-6" d="M702.3,79.14h0q18.48,29.53,36.94,59.09l5,8.07-37.75,60.41-4.23,6.76-36.93-59.09-5-8.08,37.76-60.4,4.22-6.76m-45,66.41a1.51,1.51,0,0,0,0,1.51l38.22,61.16,5.52,8.83a1.52,1.52,0,0,0,2.59,0l38.22-61.16,5.52-8.83,0-.07a2.12,2.12,0,0,0,.11-.21v0a1.38,1.38,0,0,0,.08-.45.76.76,0,0,0,0-.15h0a.89.89,0,0,0-.07-.28.08.08,0,0,0,0,0l-.09-.2a.25.25,0,0,1,0-.07L709.12,84.39l-5.52-8.83a1.52,1.52,0,0,0-2.59,0l-38.22,61.16-5.52,8.83" transform="translate(-28.77 -25.19)"/><path class="cls-6" d="M700.09,107.51h0c.74-1.18,1.48-2.36,2.21-3.54l23.43,37.49,3,4.84q-12.12,19.41-24.25,38.8c-.73,1.18-1.47,2.36-2.21,3.54q-11.7-18.75-23.42-37.49l-3-4.85,24.24-38.79m-2.58,79.1,3.5,5.6a1.52,1.52,0,0,0,2.59,0l24.72-39.55c1.16-1.87,2.33-3.73,3.5-5.6l0-.07a2.12,2.12,0,0,0,.11-.21v0a1.15,1.15,0,0,0,.07-.45.75.75,0,0,0,0-.15h0a1.43,1.43,0,0,0-.07-.28.08.08,0,0,0,0,0,1.24,1.24,0,0,0-.1-.2l0-.07L707.1,106l-3.5-5.6a1.52,1.52,0,0,0-2.59,0L676.29,140l-3.5,5.6a1.51,1.51,0,0,0,0,1.51l24.72,39.55" transform="translate(-28.77 -25.19)"/><path class="cls-6" d="M645.31,202.32h0l6.37,10.2,40.26,64.42,8.82,14.11-8.82,14.11-40.26,64.42-6.37,10.2h0l-9.57,15.31-8,12.8-17.59-28.14h0l-30.67-49.08-24.76-39.62,24.76-39.62,30.67-49.08h0l17.59-28.14,8,12.8Zm-93.85,88.73v0h0v0h0v0h0v0h0v0h0v0h0v0a1.37,1.37,0,0,0,.19.59Q564.28,312,576.9,332.18l40.26,64.42L626,410.71l.47.76a1.54,1.54,0,0,0,2.58,0l.47-.76q12.39-19.8,24.77-39.62l40.26-64.41q4.63-7.44,9.29-14.87a1.33,1.33,0,0,0,.2-.76v0h0v0h0v0h0v0h0v0h0v0a1.47,1.47,0,0,0-.2-.61q-4.65-7.43-9.29-14.87L654.27,211q-12.39-19.81-24.77-39.62h0l-.47-.76a1.55,1.55,0,0,0-2.58,0l-.47.76h0l-8.82,14.11L576.9,249.92q-12.63,20.18-25.24,40.37a1.33,1.33,0,0,0-.2.76" transform="translate(-28.77 -25.19)"/><path class="cls-6" d="M685.24,291.06l-19.51,31.21q-15.94,25.53-31.9,51l-6.09,9.75-18.69-29.91-31.9-51-6.91-11.05L577.15,280q15.95-25.51,31.9-51l18.69-29.91,6.09,9.75,31.9,51ZM574.57,278.49l-7.39,11.81a1.55,1.55,0,0,0-.2.64h0v0h0v0a1.43,1.43,0,0,0,.2.79l7.39,11.81,31.89,51,16.29,26.05h0l3.69,5.91a1.51,1.51,0,0,0,2.58,0l3.68-5.89h0l3.69-5.91q16-25.51,31.9-51,10-16,20-32l0-.07a1.24,1.24,0,0,0,.1-.2s0,0,0,0a1.43,1.43,0,0,0,.07-.28h0a.57.57,0,0,0,0-.13v0a.65.65,0,0,0,0-.14h0a1.28,1.28,0,0,0-.07-.28s0,0,0,0a1.24,1.24,0,0,0-.1-.2l0-.07-20-32q-15.94-25.51-31.9-51l-3.69-5.91h0L629,195.49a1.51,1.51,0,0,0-2.58,0l-3.69,5.9h0l-16.29,26-31.89,51" transform="translate(-28.77 -25.19)"/><path class="cls-6" d="M627.74,223.89h0L664.67,283l5.05,8.07L632,351.46l-4.23,6.76-36.93-59.09q-2.52-4-5-8.08l37.75-60.4,4.23-6.76m-45,66.41a1.46,1.46,0,0,0,0,1.51L620.93,353l5.52,8.83a1.52,1.52,0,0,0,2.58,0l38.22-61.16c1.85-2.94,3.68-5.89,5.53-8.83l0-.07a2,2,0,0,0,.1-.21l0,0A1.39,1.39,0,0,0,673,291a.65.65,0,0,0,0-.14h0a1.28,1.28,0,0,0-.07-.28l0,0a1.24,1.24,0,0,0-.1-.2l0-.07-38.23-61.16L629,220.31a1.51,1.51,0,0,0-2.58,0l-38.22,61.16-5.52,8.83" transform="translate(-28.77 -25.19)"/><path class="cls-6" d="M625.53,252.26h0l2.21-3.54,23.43,37.49,3,4.84q-12.12,19.41-24.25,38.8l-2.21,3.54L604.31,295.9l-3-4.85,24.25-38.79M623,331.36q1.74,2.81,3.5,5.6a1.51,1.51,0,0,0,2.58,0l24.72-39.55c1.17-1.87,2.34-3.73,3.5-5.6,0,0,0-.05,0-.07a2,2,0,0,0,.1-.21l0,0a1.39,1.39,0,0,0,.07-.46v-.14h0a2.29,2.29,0,0,0-.07-.28l0,0a1.24,1.24,0,0,0-.1-.2.25.25,0,0,0,0-.07l-24.72-39.55q-1.74-2.81-3.5-5.61a1.52,1.52,0,0,0-2.58,0L601.73,284.7q-1.76,2.79-3.5,5.6a1.46,1.46,0,0,0,0,1.51L623,331.36" transform="translate(-28.77 -25.19)"/></g></g></g></g></svg>