<svg id="Layer_1" data-name="Layer 1" xmlns="http://www.w3.org/2000/svg" xmlns:xlink="http://www.w3.org/1999/xlink" viewBox="0 0 785.66 471.95"><defs><style>.cls-1{fill:none;}.cls-2{clip-path:url(#clip-path);}.cls-3{fill:#f6e6ca;}</style><clipPath id="clip-path" transform="translate(0.53 -20.17)"><rect class="cls-1" x="-0.53" y="20.17" width="785.66" height="471.95"/></clipPath></defs><title>Background Pattern</title><g class="cls-2"><path class="cls-3" d="M42.94,122.16c16.32-16.13,24.46-34.5,24-57.72-4.43,2.76-8.06,4.83-11.49,7.19-5.58,3.83-10.87,8.11-16.58,11.71C31,88.28,23.08,87.8,15.43,82.65,13.51,81.36,11.67,80,9,78.06c6.24,14.58,17.87,16.6,31.18,16.34C38.34,97,36.54,99.6,34.09,101s-5.66,1.8-9.61,2.94l18.46,18.19M25.36,52.4c-1.08-5.43.49-9.33,4.55-11.47,6.9-3.63,17-.92,21,5.73A38.83,38.83,0,0,1,53.12,52l9.62-4.69C55.12,30.57,33.92,23.1,17,31,2.41,37.79-.21,56.33,12.08,66.79c6,5.11,13,5.73,20.13,2.78,5-2.08,7.15-7.62,5.36-12.83-1.46-4.24-4.81-5.64-10.73-4.49-.49.09-1,.1-1.48.15M-.53,37.1C6.74,28.8,15.27,22.54,26.52,21c17-2.34,34.14,6.72,42.25,22.46a6,6,0,0,0,5.46,3.71c10.66,1.18,18.24,8.62,18.71,18-3-1.13-6-2.69-9.13-3.25s-6.46-.12-9.85-.12c0,12.42.22,24.07-4.25,35.13-4.4,10.88-12.51,19.11-20.18,28,8.66,4.58,17.74,6.36,27.11,6.88,15.47.85,30.33-1.17,43.88-9.43,9.81-6,15.5-19.59,12.48-30.57-1.25-4.54-3.72-8.24-8.41-9.68-1.81-.55-3.93-.09-5.9-.09,0,.34-.09.68-.13,1,1.23.84,2.5,1.62,3.67,2.53,4.69,3.64,5.27,8.91.76,12.75a23.75,23.75,0,0,1-9.41,4.5c-3.54.9-6.16-1.31-7.26-4.75-.64-2-.72-4-3.62-3.88s-5.32,1.15-5.92,3.94-.22,5.49-.14,8.24a10.54,10.54,0,0,0,.88,2.66c-7.54-3.3-12.21-12.84-11-22C88.66,70.3,101.91,61.54,118.41,66c14.85,4,22.86,13.24,24.71,28.55a22.48,22.48,0,0,0,.48,2.26c10.77-8.6,22.51-7.36,26.07,2.89l-3.79-.89c-3.14-.72-5.53.27-7,3.17-.59,1.13-1.18,2.27-1.78,3.39-3.12,5.87-7.72,6.28-12,1.08-.3-.36-.62-.71-1.18-1.35a50.46,50.46,0,0,1-27.25,29.83,72.57,72.57,0,0,1-28.24,6.41c-5.86.2-11.74,0-18.49,0,1.49.82,2.27,1.3,3.09,1.69,20.44,9.63,23.59,38.08,5.7,51.94-5.19,4-11.16,6-17.61,4.45a12.72,12.72,0,0,1-6.51-4.57c-1.59-2.06-.28-5.06,2.39-8.08,3.85,5.42,8.72,4.95,11.72-1.28,3.66-7.63,3-15.41.29-23.12A52.61,52.61,0,0,0,53.59,139.8C50.31,137,47,134.14,43.35,131c-8,7.65-16.23,15-21.81,24.47a64,64,0,0,0-7,18c-.76,3.33.44,7.73,2.17,10.86,3.55,6.44,13,6.8,17.81,1.23,3.11-3.57,1.21-6.59-1.22-9.5a9.32,9.32,0,0,1,11,2.85c5.23,6.07,4.6,14.57-1.94,19.16-3.47,2.43-7.66,3.84-11.78,5.83a9.66,9.66,0,0,0,.92,1.55c5.38,6.87,6,14.31,2.07,21.9-2.63,5.09-6,9.76-9,14.7-3.44,5.82-6.76,11.71-10.07,17.6a9,9,0,0,0-1.05,2.87c-.42,2.43-1.78,5.58,1.41,6.66,1.62.55,4-1.11,6.7-2,1.45,1.34,1.4,3.72-.42,6-2.54,3.17-6.06,4.1-10,3.48-3.56-.57-6.22-2.79-6.38-6.21a88.37,88.37,0,0,1,.62-18.55C7,242.7,10,233.7,8.64,224.25c-1.08-7.58-2.42-15.12-3.9-22.63-4.73-24,2.57-44,19.39-61.18,4.48-4.56,8.72-9.34,13.29-14.25L22.43,112c-3.5,2.42-7.09,5.08-10.86,7.45-4.64,2.91-7.65,7-9.86,11.91C1.09,132.72.22,134-.53,135.23Z" transform="translate(0.53 -20.17)"/><path class="cls-3" d="M459.1,64.79c-4,2.47-7.77,4.66-11.38,7.13-5.47,3.75-10.65,7.94-16.25,11.47-7.82,4.91-15.74,4.37-23.36-.76-1.86-1.25-3.65-2.61-5.46-3.92l-.88.7c2.16,2.84,4,6,6.55,8.45,6.78,6.34,15.46,6.33,24.13,6-1.9,6.08-4.24,7.61-15.51,9.8l18.17,18.1c14.19-9.13,27.27-40.39,24-57M351.92,94c18.83-.62,29.32-6.07,30-15.31-14.64,10.69-21.35,10.64-36-.17-4.83-3.55-9.67-7.08-14.62-10.47A56.1,56.1,0,0,0,325,64.77c-.28,22.89,7.78,41.36,23.62,56.87A75.64,75.64,0,0,0,367,103.09c-7-.3-12.35-2.23-15.07-9.12M339,51.94c2.77-9.39,8.83-13.52,18.29-12.54,7.19.75,10.65,5.5,9.29,13-1-.2-1.94-.44-2.93-.58-6.15-.89-9.83,2.35-9.78,8.59.05,5.72,4,9.68,10.57,10.51,10,1.27,17.89-3.55,21.64-13.21,3.61-9.29.91-19-7.13-24.43-9.34-6.29-19.62-7-30.08-3.62-9,2.91-15.22,9.28-19.94,17.47L339,51.94m79.07.51c-1.35-7.41,2-12.53,9.27-12.77,3.91-.13,8.44.54,11.63,2.54s5.1,6.11,7.65,9.4l8.75-4.28C447.58,29,420.72,21.75,405.14,33.7c-8.06,6.18-10.34,16.22-5.84,25.77,4.29,9.1,12.78,13.39,22.36,11.29,6.71-1.48,10.28-6.62,8.95-12.88-1.11-5.22-4.92-6.94-12.53-5.43m-59.51,123c-3.5,6-3.42,8.51.16,11.2,4.9,3.69,11.53,3.4,15.38-.78a13.53,13.53,0,0,0,3.4-12.83,65.67,65.67,0,0,0-5.58-15.35c-5.74-10.4-14.62-18.26-23.07-26.65-12.2,9-22.93,19-26.55,34.15-1.23,5.15-.52,10.8-.44,16.22a10.49,10.49,0,0,0,1.58,4.28c3.1,5.92,7.79,6.29,11.69.82,2.27,2.4,3.93,5.45,2.27,8.2a11.41,11.41,0,0,1-6.82,4.68c-7,1.38-13.41-.87-18.71-5.73-17.42-16-11.23-43.89,8.17-51.17.58-.22,1.16-.49,2.74-1.16-1.72-.11-2.46-.24-3.19-.2-13.75.71-27.36.25-40.43-4.81-14.44-5.6-25-15.16-30.43-29.89a12.38,12.38,0,0,0-.79-1.34c-.62.8-1.08,1.46-1.63,2.05-4,4.29-8.25,3.8-11.1-1.27-.43-.78-.8-1.59-1.22-2.39-2.64-5.07-4.33-5.82-9.81-4.36-.59.16-1.19.27-1.93.43,3.79-10.28,15.57-11.55,26.2-2.78.26-2,.57-3.87.72-5.72,1.48-18.15,25.57-31.47,42.73-24.12,8.66,3.71,12.49,11.15,13.47,20,.91,8.16-1.34,15.45-8.21,20.72a13,13,0,0,1-1.64,1c-.18.09-.45,0-.35,0,.21-3,.75-6,.53-8.94s-2.25-5.09-5.46-5.52c-2.22-.29-3.73.13-4.39,2.85-1.2,4.93-4.67,6.82-9.59,5.46a18.08,18.08,0,0,1-5.5-2.57c-6.5-4.53-6.42-10.78.08-15.21a5.92,5.92,0,0,0,2.4-2.67c-2.06,0-4.28-.51-6.13.09-4.81,1.58-7.19,5.5-8.31,10.22-2.74,11.67,2.81,23.86,14,30.64,12.39,7.52,26.12,9.23,40.24,8.83,9.26-.26,18.31-1.79,26.82-5.7.78-.36,1.52-.79,2.34-1.21-4.15-5.08-8.16-10-12.2-14.91-8.71-10.58-11.6-23.08-12-36.39-.08-2.94-.17-5.89,0-8.81.15-2.17-.71-2.92-2.73-3.19-5-.68-8.75.11-16.62,3.95.68-6.31,3.18-11.36,8.32-14.37,3.54-2.07,7.83-2.8,11.71-4.32,1.38-.53,3.16-1.3,3.74-2.47,11.43-23.3,44.62-35.38,68.35-9.11A15.22,15.22,0,0,1,392.15,38c1.69-2.18,2.49-3.49,3.54-4.55,20.36-20.4,52.09-15.7,65.65,9.81,1.35,2.54,2.78,3.64,5.71,4,10.67,1.21,18,8.48,18.6,17.22-4.81-.93-9.77-2.07-14.8-2.79-3-.44-4.36.84-4.25,4.41.44,14.34-.76,28.49-9.44,40.68-4.49,6.3-9.63,12.14-15.18,19.07,6.74,1.78,13.1,4.08,19.66,5.1,15.82,2.45,31.4,1.39,46.13-5.56,10.37-4.9,17.27-12.68,18.6-24.44.68-6-.2-11.81-4.86-16.28-2.82-2.72-6.13-3.93-10.76-2.16,4.72,3.71,10.45,6.63,6.81,13.62-2.21,4.24-8.47,7.48-12.87,6.83-3.57-.53-5.07-2.34-6.87-9-2.36.69-5.38.71-7,2.22-3.75,3.59-2.22,8.21-.64,13.21-7.6-4.07-10.44-10.39-11-17.73-1.4-18.31,14-30.51,31.94-25.63,15.34,4.17,22.48,12.87,25.11,31.11,5-5.44,10.74-8.13,17.79-5.39,3.72,1.44,7,3.55,8.65,8-1.59-.38-2.78-.69-4-1-3.29-.7-5.77.37-7.31,3.43-.34.69-.69,1.37-1,2-3.9,7.58-8,8-13.56,1.12-14.11,33.22-42.52,37.25-73.73,36.41.89.44,1.76.91,2.67,1.33,20.65,9.48,23.46,39.24,4.94,52.43a22.23,22.23,0,0,1-15.55,4.23c-3.29-.32-6.88-1.15-7.74-4.57-.66-2.61.5-5.68.8-8.17,3.05,1.46,5.23,3.4,7.35,3.33,3.5-.11,5.27-3.2,6.48-6.29,2.8-7.15,2.19-14.29-.27-21.36a51.59,51.59,0,0,0-13.83-21.33c-3.75-3.46-7.65-6.74-11.91-10.48-11.77,12.23-25.23,22.94-28.56,40.72a21,21,0,0,0,.6,10.11c2.64,7.82,11.23,10,17.84,5.08,3.66-2.75,3.76-5.22.4-10.88,5.91-1.86,11.32,1.28,13.42,7.79,3,9.15-1.78,14.81-16.46,19.73,0,.23-.1.55,0,.69,8.39,10.34,6.56,19-1.78,31.83-4.87,7.48-9.37,15.2-13.89,22.9a13.72,13.72,0,0,0-2,5.73c-.1,1.52.58,4,1.61,4.48,1.22.52,3.22-.65,4.83-1.22.52-.18.89-.8,1.4-1.29,2,2.34,1.82,4.53.16,6.72-2.44,3.23-5.86,3.95-9.59,3.41-3.5-.51-6.09-2.51-6.37-6.15-.39-5-1.48-10.42-.15-15.06,5.11-17.87,4.23-35.41.15-53.33-5.44-23.92,2.07-44.29,19-61.57,4.55-4.64,8.89-9.49,13.45-14.36L415,111.74c-2.39,1.86-4.55,4.15-7.19,5.47a28.39,28.39,0,0,0-14.24,16.27,16.59,16.59,0,0,1-.77,1.73c0,.09-.19.12-.62.35-.54-1.22-1.08-2.43-1.61-3.65-2.71-6.29-6.73-11.2-13.15-14.26-2.84-1.35-5-4.08-7.57-6.24l-15.74,15c5.21,5.34,10.31,10.52,15.35,15.74,17.32,18,22.57,39.15,17.14,63.26-1,4.49-1.8,9-2.63,13.54-1.8,9.75-.48,19.26,1.69,28.84a96.91,96.91,0,0,1,2.21,18.53c.26,8.44-7.24,13-14.33,9.13-3.84-2.09-4.8-5.7-2.25-9.13,1.78,1.7,3.08,5.16,6.35,2.85,3-2.14,1.76-5.27.47-7.63-4.78-8.71-9.86-17.25-14.85-25.85-.64-1.1-1.44-2.1-2.12-3.18-6.14-9.74-7.87-19.41.53-28.63-4-1.89-8.12-3.31-11.66-5.57-5.21-3.32-6.75-8.23-5.2-14,1.8-6.69,6.46-9.77,13.79-8.85" transform="translate(0.53 -20.17)"/><path class="cls-3" d="M360.92,492.11c-6.07-9.66-7.52-19.23.75-28.31-3.95-1.8-8-3.1-11.43-5.33-6.41-4.16-7.76-10.83-4.13-17.41,2.66-4.85,6.45-6.58,12.15-5.55.05.22.22.53.13.66-3.19,4.61-3.37,6.76-.75,9.5,3.46,3.63,10.06,4.7,14.12,2.08,4.64-3,6.33-7.56,6-12.88-.58-9.12-4.32-17-10.21-23.82s-12.14-13.44-18.39-20.32c-12.66,9.71-24,19.79-27.21,35.76-1,5.08-.1,10.57.21,15.86a9.82,9.82,0,0,0,1.81,4.17c3.19,5.17,7.67,5.21,11.1-.12,2.13,2.31,3.88,5.08,2.5,7.78a10.67,10.67,0,0,1-6.06,5c-7.16,1.82-13.65-.42-19.21-5.17-17-14.52-13.08-42.09,7.26-51.3a4.62,4.62,0,0,0,2-1.54c-1.15,0-2.29,0-3.43,0-11.8.46-23.52.17-34.93-3.44-16.71-5.29-28.76-15.58-35-32.43a33.24,33.24,0,0,1-4.11,3.57c-3.38,2.08-6.05,1.37-8.19-1.88-.35-.54-.63-1.11-.93-1.68-4.07-7.52-4.07-7.52-12.45-6,2.61-9.95,15.8-11.38,26-2.36.17-1.44.35-2.29.37-3.15.48-21.06,25-32.91,40.81-27.72,9.88,3.22,14.42,10.78,15.61,20.34,1.07,8.66-1.22,16.49-9,21.77a5,5,0,0,1-1,.45c.15-3.08.66-6.22.35-9.28s-2.47-4.95-5.71-5.23c-2.09-.18-3.42.31-4.05,2.79C284.6,362,281,363.86,276,362.4a17.42,17.42,0,0,1-4.83-2.24c-6.91-4.63-6.88-11,0-15.65.72-.49,1.46-1,2.18-1.44,0-.4,0-.81,0-1.22-1.92,0-4-.44-5.72.09-5,1.51-7.56,5.44-8.73,10.3a27,27,0,0,0,12,29.3c23,14.13,47,12.77,72,3.74-2.1-2.31-3.55-4.06-5.15-5.65C323,364.91,316.68,347,318.06,326.42c.28-4.15-1.42-5.47-4.89-4.93-4.8.74-9.53,1.95-14.12,2.93.3-8.52,7.84-16.08,18.53-17.33a6.48,6.48,0,0,0,5.73-3.94c13.81-25.82,45.89-30.29,66.19-9.33.88.9,1.68,1.88,3.19,3.6a36.25,36.25,0,0,1,3-3.94c20.46-20.55,52.36-15.71,65.86,10,1.18,2.26,2.41,3.31,5.09,3.6,10.91,1.19,18,8,19.25,18.52a19.4,19.4,0,0,0-3.34-1.65c-3.41-.92-6.84-2.17-10.32-2.4-5.31-.36-5.73.2-5.45,5.4q1.74,32-21.17,54.23c-1.09,1.06-2.08,2.22-4.05,4.32,6.88,1.9,13,4.13,19.22,5.21,15,2.59,29.86,1.65,44.11-4.1,11.48-4.63,19.72-12.33,21.45-25.24.85-6.29-.06-12.3-4.95-17-3.16-3-6.71-3.58-10.17-1.57,4.13,3.16,9.43,5.78,6.8,12.39-1.75,4.41-7.94,8-12.76,7.66-3.89-.29-5.41-2-7.23-8.1-8.1-1.81-11.24,3.51-8.07,13.67-3.26-.8-5.78-2.86-7.77-6.81-5-10-4.07-19.67,2.65-28.43s16.38-9.78,26.09-7.17c15.32,4.12,24.91,13.68,25.07,31.42,5.16-5.72,10.72-8.38,17.74-5.94,4.36,1.52,7.26,4.16,8.77,8.09-1.35-.29-2.56-.54-3.76-.83-3.33-.8-5.76.3-7.31,3.35-.58,1.14-1.15,2.29-1.76,3.41-3.09,5.7-7.56,6.12-11.73,1.1-.37-.44-.72-.89-1.29-1.61-6,16.28-17.28,26.58-33.11,32.11-10,3.51-20.43,4.47-31,4.26-3.13-.07-6.26,0-10.41,0L465.6,403c20.74,9.61,23.65,38.84,5.19,52.38-4.82,3.53-10.22,5.23-16.24,4.29-8-1.24-10.07-6.58-5-13,4.19,5.54,9,5.05,11.93-1.36,4-8.62,2.68-17.19-.74-25.63-4.93-12.19-14.38-20.52-25.2-28.84-6.33,7.06-12.71,14.12-19,21.23a37.18,37.18,0,0,0-9.1,19.91,21.63,21.63,0,0,0,1.18,10.77c3.09,7.51,12.31,8.95,18.22,3.35,2.82-2.68,2.69-5.09-.56-10.14,5.78-2,11.32,1.18,13.48,7.7,3,9.08-1.63,14.68-16.44,19.79,0,.22-.1.54,0,.67,7.45,8.83,6.76,18,1,27.25" transform="translate(0.53 -20.17)"/><path class="cls-3" d="M206.13,278.76c14.26-10.47,21.24-10.56,35.6-.18,4.35,3.15,8.57,6.47,13,9.49,2.56,1.74,5.41,3.05,8.38,4.69,1.7-19.72-9.25-45.69-23.55-56.44-7.13,4.7-12.93,10.78-18.38,18.19,7.17.27,12.67,2.11,15.25,9.33-13.28-.81-24.82,1.25-30.3,14.92m-36.06-24.2c.26-.35.52-.69.77-1l-18.13-17.87c-16.28,16.22-24.81,34.43-23.84,57.63,4.31-2.69,7.95-4.76,11.38-7.14,5.14-3.56,10-7.53,15.23-11,6.2-4.08,13-5.4,20-2.28,3.73,1.66,7.13,4.06,10.86,6.24-5.61-14-17.34-15.86-30.21-15.38,1.63-6.07,4.88-8.16,13.91-9.19m51.59,50.68,3,.49c6,1,9.72-2.09,9.84-8.09.12-5.36-3-9.16-8.65-10.6-9.52-2.4-18.44,1.92-22.79,11.06-4.58,9.59-2.15,20.11,6,26,10.43,7.57,27,7.63,37.94.07a35.77,35.77,0,0,0,12.28-13.79l-9.86-4.78c-2.95,9.46-9.73,14-18.67,12.51-7.19-1.19-10.15-5.34-9.06-12.9M133,310.45c7.09,17.33,31.28,25,47.88,15.18,15.65-9.23,11.93-28.51,1-35.91a18.18,18.18,0,0,0-19-1.22c-4.76,2.31-6.6,7.72-4.71,12.75,1.56,4.15,4.77,5.48,10.45,4.35a16.88,16.88,0,0,1,1.73-.17c.94,8.12-2.68,12.82-10.42,12.81-3.56,0-7.71-.64-10.51-2.56-3.18-2.2-5.15-6.16-7.76-9.49l-8.7,4.26M77.12,274.84c-4.49-3.35-9.7-6.34-6.2-13.23,2-3.89,8.07-7.28,12.51-6.71,4.72.6,6.13,4,6.56,8,8.48,2,11.47-2.95,8.47-13.69,4.25,1.29,7.84,5.36,9.43,10.82,4.61,15.86-4.25,36.69-28.72,32.1-12-2.26-21.54-8.81-25.39-21.27-1-3.19-1.14-6.63-1.8-10.73-4.64,5.92-10.12,8.55-17,6.15-4-1.38-7.53-3.48-9.28-8.19,1.65.37,2.87.62,4.08.91a5.79,5.79,0,0,0,7.06-3.16c.67-1.23,1.26-2.5,1.93-3.74,3-5.47,7.5-5.94,11.53-1.21.41.47.74,1,1.24,1.67,14.18-33.36,42.6-37.37,74.57-36a26.21,26.21,0,0,0-2.86-1.63c-17.65-6.54-25.89-33.79-7.81-50.8a21.56,21.56,0,0,1,18.29-6.09c8,1.1,10.16,6.49,5.63,12.41-2.16-1.14-4.17-3-6.21-3.08-3.36-.06-5.26,2.73-6.49,5.71-4.32,10.39-1.54,20,3.21,29.41,5.11,10.13,13.66,17,22.66,24.25,11.54-12.05,24.89-22.69,28.36-40.26a22.48,22.48,0,0,0-.57-10.5c-1.87-6.14-7.8-8.82-13.76-7-7.17,2.18-8.7,6.52-4.27,12.84-2.95,1.46-5.67.8-8.22-.69-6.67-3.92-8.41-14.31-2.76-19.52,3.06-2.83,7.35-4.35,11.13-6.37a15.74,15.74,0,0,1,3.11-.86c-.6-.89-1-1.52-1.42-2.1-5.49-7-6-14.65-1.83-22.25,3.59-6.58,8.14-12.63,11.91-19.12A163.81,163.81,0,0,0,182,95.28c1-2.26,1.88-5.51-1.27-6.63-1.6-.57-4,1-6.89,1.93,0-1.24-.68-3.59.14-5.18,1.79-3.49,5.32-4.6,9.13-4.41,3.66.19,6.75,1.88,7.4,5.55.75,4.32.58,8.82.8,13.24a2.17,2.17,0,0,1-.08.76c-6.15,19.52-4.18,38.87-.13,58.57,4.61,22.41-3.42,41.43-19,57.58-4.69,4.85-9.3,9.79-14.1,14.84L173.29,246c2.72-2.1,5.15-4.58,8.09-6.11a27.08,27.08,0,0,0,13.11-14.86c.33-.83.68-1.65,1.08-2.44.09-.19.4-.28.52-.36,1.72,3.24,3,6.8,5.27,9.6s5.4,4.95,8.28,7.21,6.05,4.44,9.12,6.66c4.82-4.56,10.15-9.61,14.87-14.06-4.21-4.66-8.31-9.35-12.58-13.87-10.85-11.46-19.29-24.13-21-40.35-1.08-10.58.55-20.92,2.92-31.14a77.8,77.8,0,0,0-.51-37.51c-1.62-6.31-1.65-13.1-1.79-19.69a7.54,7.54,0,0,1,5.38-7.65,10.42,10.42,0,0,1,10.45,1.9c2.83,2.41,2.92,4.82.39,8-.45-.66-.74-1.55-1.33-1.84-1.24-.62-2.88-1.57-3.91-1.19a4.24,4.24,0,0,0-2.25,3.37,22,22,0,0,0,2.27,8c4,7.11,8.45,14,12.64,21a120.19,120.19,0,0,1,6.18,11c3.8,8.24,1.79,15.68-3.78,22,4.13,2,8.44,3.43,12,5.93,6.53,4.6,7.25,12.67,2.2,18.84-2.85,3.47-6.47,4.79-11.29,3.51.65-1,1.19-1.73,1.68-2.52,2-3.24,1.45-6-1.55-8.4-6.86-5.39-15.8-2.64-18.49,5.69a19.44,19.44,0,0,0,1.31,14.94A127.1,127.1,0,0,0,224.68,211c4.31,5.63,9.72,10.42,14.68,15.62,13-9.64,23.85-20.35,27.39-36.5a27.58,27.58,0,0,0-1-16.2,16.31,16.31,0,0,0-1.09-2.45c-3.19-5.57-7.91-5.79-11.51-.26-2.06-2.54-3.93-5.44-2.29-8.28a11.09,11.09,0,0,1,6.38-4.65c7.57-1.85,14.2.83,19.64,6.05,17.57,16.9,9.64,44.16-8.52,50.65a3.26,3.26,0,0,0-1.71,1.41c1.27,0,2.53.05,3.8,0,13.37-.6,26.6,0,39.24,5.05,14.1,5.64,24.44,15.07,29.79,29.53a17.47,17.47,0,0,0,.81,1.56,29.53,29.53,0,0,1,2.25-2.75c3.67-3.51,7.55-3,10.2,1.3a1.61,1.61,0,0,1,.2.33c2.34,6.14,5.85,10.05,13.42,6.1-4.32,10.69-15.61,11.92-26.4,3.27-.32,2.16-.61,4.09-.89,6-2.64,18.58-26.23,31.54-43.31,23.56-8.62-4-12.28-11.77-12.94-20.76-.58-8,1.93-15.14,8.86-20.07a10.25,10.25,0,0,1,1.52-.76c-.26,3-.87,5.87-.68,8.7.23,3.39,2.23,5.62,5.9,5.92,2.15.17,3.46-.29,4-2.84,1-4.46,3.58-6.08,8.1-5.7,5,.41,8.57,3.18,10.95,7.37,1.91,3.35.64,7.19-2.84,9.66-1.24.87-2.54,1.66-3.84,2.52,2.74,2.33,6.48,2.06,9.54-.6,6.16-5.35,6.71-12.29,5.26-19.61-2.09-10.49-8.67-17.6-18.17-21.78-20.66-9.12-41.64-9-62.68-1.14a31.84,31.84,0,0,0-3.26,1.77c18.89,16.63,27.38,37.22,24.39,62,7.32,2.41,13.36.59,19.14-3l1.05.56c-1.45,3.2-2.49,6.67-4.43,9.54-3.58,5.3-9.18,7.67-15.34,8.34a5.67,5.67,0,0,0-5.13,3.53c-8.77,17-27.87,26.14-45.58,22a41.7,41.7,0,0,1-20-11.53c-1.15-1.14-2.17-2.43-3.54-4-1.62,1.77-2.83,3.24-4.2,4.55-20.49,19.57-51.49,14.61-64.87-10.45-1.33-2.49-2.62-3.71-5.62-4.05-10.91-1.22-18.37-8.74-18.72-17.17,4.93.9,10.06,2,15.24,2.71,2.73.37,3.73-1,3.85-4.08.3-8.27.6-16.64,2.14-24.73s5.82-15.22,11.08-21.6c3.56-4.32,7.25-8.53,11-12.93-8.21-4.31-16.91-6.12-25.9-6.73-14-1-27.6.46-40.35,6.77C67.28,239,61,249.63,61.91,262.78c.44,6.64,3.93,11.47,9.84,13.15,1.55.44,3.33.07,5,.07l.36-1.16" transform="translate(0.53 -20.17)"/><path class="cls-3" d="M562.78,254.66l.76-1.13-17.95-17.69c-15.8,13.65-26.47,39.38-23.74,57.21,4-2.48,7.83-4.66,11.44-7.14,5.27-3.6,10.25-7.64,15.6-11.11,8.47-5.5,16.91-4.8,25,1,1.55,1.11,3.06,2.26,5.44,4-6.26-14.74-18-16.6-31.12-15.9,2.76-7.09,8.08-9.07,14.54-9.25m92.74,38.28c2.17-20-7.37-42.81-23.87-57.12L613.23,254.1c11.39,1.92,13.92,3.64,15.26,9.65-14.83-1.73-27.09,4.58-29.75,15.54,1.46-1.12,2.74-2.12,4-3.1,8.57-6.48,18-6.87,27-.82,4.87,3.28,9.43,7,14.26,10.37,3.61,2.5,7.43,4.69,11.45,7.2m-41.14,12.31c1.1.19,2.19.4,3.29.57,5.37.8,9-2,9.5-7.39.52-5.63-2.68-9.86-8.61-11.37-9.51-2.43-18.41,1.86-22.81,11-4.63,9.6-2.25,20,5.94,26,4.78,3.51,10.26,5.06,16.08,5.62,14.18,1.36,29.41-7.34,33.93-19.42l-9.57-4.64c-3.1,9.25-8.76,13.32-17.5,12.63-7.76-.61-11.27-5-10.25-13m-88.85,5.1c8.26,18,32.6,25.28,48.86,14.79,14.9-9.62,10.71-28.5,0-35.53a18.23,18.23,0,0,0-19-1c-4.56,2.27-6.37,7.6-4.65,12.51,1.45,4.14,4.82,5.61,10.38,4.55.61-.12,1.24-.16,1.86-.24,1.29,7.39-2.15,12.07-9.38,12.91-9.13,1.07-15.29-3.14-18.34-12.65-1.58.84-3.1,1.72-4.69,2.48s-3.25,1.43-5.07,2.21M566.37,91.1c.08-1.93-.43-4.17.38-5.73,1.83-3.51,5.36-4.57,9.15-4.35,3.62.21,6.82,1.87,7.38,5.56a85.36,85.36,0,0,1,.59,14.4,26.93,26.93,0,0,1-1.4,7.51c-4.27,13.62-3.39,27.19-.2,40.86,2.57,11,3.78,22.16,1.56,33.43-2.72,13.82-10.43,24.79-19.85,34.79-4.36,4.64-8.68,9.31-13.14,14.1l15.34,14.53c1.9-1.71,3.58-3.68,5.65-5,11.08-7.25,11.12-7.2,16.85-19.25a22.45,22.45,0,0,1,1.25,2.39A27.66,27.66,0,0,0,603.73,240c2.74,1.37,5,3.74,7.62,5.78L627.06,231c-2.25-2.26-4.66-4.46-6.81-6.89-6.09-6.87-12.69-13.39-18-20.85-11.17-15.83-11.73-33.7-7.55-51.85,3.48-15.09,4.48-30-.16-45a43.5,43.5,0,0,1-1.55-11,32.65,32.65,0,0,1,1-8.68A7.31,7.31,0,0,1,600.8,81c3.93-.41,7.64.47,9.68,4,.93,1.63.46,4,.66,6.46-1.33-.32-1.66-.3-1.76-.44-1.35-1.86-2.54-4.22-5.44-2.68-2.61,1.39-2.22,3.79-1.51,6.07,3.05,9.77,8.89,18,14.51,26.4a76.68,76.68,0,0,1,6.3,10.88c3.16,6.94,2.43,13.68-2.15,19.9-.59.81-1.13,1.65-1.43,2.1,4.16,2.09,8.58,3.63,12.2,6.27,6.56,4.79,6.62,14.22.65,19.77a9.27,9.27,0,0,1-9.39,2.29c.64-2.46,1.7-4.89,1.72-7.33,0-1.29-1.55-2.89-2.79-3.84-5.11-3.88-11.71-3.26-15.53,1.33-3.38,4.07-3.75,8.81-2.88,13.78a40.45,40.45,0,0,0,8.72,18.95c6.17,7.47,12.81,14.56,19.37,22,13.92-10.16,25.28-21.47,28-38.72.68-4.36-.52-9.05-1.05-13.57a9,9,0,0,0-1.55-3.47c-3.28-5.24-7.52-5.21-11.17,0-5.1-6.42-3.14-11.82,4.87-13.08,7.21-1.14,13.45,1.28,18.61,6.17,17.87,16.92,9.79,44.22-8.09,50.72-.68.24-1.3.64-2.74,1.36,3.86,0,6.83.06,9.8,0,9.5-.2,18.89.48,28.08,3.17,17.39,5.08,30,15.48,36.45,33.09.64-.76,1.15-1.4,1.7-2,3.89-4.38,8.24-4,11.14,1.08l.36.67c4.09,7.61,4.11,7.61,12.47,5.91-2.9,10.15-16,11.44-26.08,2.12-.52,3.49-.87,6.68-1.48,9.82-2.69,14-20.89,23.59-33.24,22.51-10.52-.93-17.68-6.16-20.94-16.23-2.27-7-2-13.93,1.73-20.31,1.71-2.94,4.48-5.26,6.77-7.86l1,.74c-.46,1.67-1.45,3.41-1.25,5,.34,2.76.73,6,2.35,8,2.44,3.07,6.45,1.85,7.72-1.77,2.2-6.25,9.63-7.39,15.44-2.38,6.18,5.33,5.9,10.72-.78,15.3l-2.18,1.51c3.82,2.8,10.15.61,12.64-4.41,4.9-9.87,2.93-19.11-3.21-27.69-4.15-5.79-10.06-9.46-16.64-11.83a82.84,82.84,0,0,0-56.37-.42c-1.78.61-3.47,1.51-5.55,2.43,1.78,2,3.24,3.7,4.84,5.29,14.69,14.74,21,32.6,19.64,53.19-.29,4.21,1.6,5.42,4.93,4.92,4.82-.71,9.55-2,14.11-3-.42,8.69-7.73,16-18.79,17.39-3,.37-4.26,1.64-5.58,4.09-13.85,25.62-45.65,30-66,9.27-.88-.9-1.69-1.88-2.85-3.18-1.42,1.52-2.56,2.84-3.81,4.06-20.48,20-52,15.12-65.37-10.29-1.27-2.4-2.58-3.5-5.38-3.81-10.92-1.22-18.52-8.73-18.88-18.55,5.94,3.67,12.07,5.51,19.42,3.1-3-24.89,5.54-45.47,24.44-62.09a63.61,63.61,0,0,0-26.42-7c-15.18-1-30,.51-43.34,8.49-10.44,6.23-15.6,15.6-15,27.8.26,5,2.38,9.44,6.81,12.21,2.57,1.61,5.41,2.75,8.62.48-3.57-3.5-9.75-5.35-6.85-12.1,2.07-4.84,7.41-8.31,12.4-8.11,5.26.21,6.57,4.07,7.48,8.15,8.31,1.69,11.14-3.19,8.19-13.82,5.92,1.95,10.44,9.32,10.82,17.64.84,17.87-14.46,29.83-32,25-15.64-4.3-23.36-13.65-24.77-30a7.39,7.39,0,0,0-.62-1.51c-3.92,4.71-8.57,7.79-14.63,6.52a17.13,17.13,0,0,1-11.7-8.23c.6-.18.94-.41,1.2-.35,7.63,1.75,7.71,1.72,11.35-5.07,3.85-7.18,8.06-7.47,13.38-.75,14.19-33.27,42.69-37.32,73.9-36.52l-2.25-1c-20.46-9.23-24.21-37.23-6.87-51.57,5-4.18,10.84-6.21,17.45-5.27,8,1.14,10.1,6.53,5.11,13-4.41-5.56-9.09-4.92-12.11,1.77-3.35,7.43-2.71,15-.09,22.41a52,52,0,0,0,14.44,21.83c3.6,3.23,7.3,6.34,11.25,9.76,9.52-9.59,19.7-18.34,25.29-30.7A41.7,41.7,0,0,0,574,181.1c.35-8.84-7.14-14.45-14.91-12-7.1,2.2-8.61,6.66-3.94,13.06-3.89,1.06-7.12.43-10-2.05-6.26-5.41-6.28-15.14.4-20,3.61-2.62,8-4.17,12.42-6.38-.09.53,0,.37-.06.32-8.11-9.53-6.64-19.19-.4-28.91,4.07-6.34,8.35-12.55,12.19-19a68.81,68.81,0,0,0,5.2-11.46c.82-2.21,1.42-5.3-1.75-6.11-1.65-.42-3.77,1-5.68,1.6l-1.13,1" transform="translate(0.53 -20.17)"/><path class="cls-3" d="M775.38,77.73c-15.75,11.43-22,11.36-37.34,0-4.2-3.12-8.39-6.26-12.71-9.2-2.23-1.51-4.75-2.62-7.63-4.17-.35,22.84,7.69,41.25,24,57.39l18.56-18.39c-11.93-2.9-13.46-3.91-15.34-9.66,20.1-1.43,26.13-4.49,30.43-15.94M759.44,52l-2.5-.45c-3.78-.66-7.21-.32-9.29,3.46s-1.32,9.3,1.83,12a15.44,15.44,0,0,0,5.64,3c9.89,2.76,19.09-2,23.29-11.87,4.43-10.36,1.06-20.84-8.5-26.51-16.47-9.76-39.89-2.41-48,15.17l9.84,4.72c3-9.83,10.15-14.24,19.59-12.28,6.41,1.32,9.05,5.31,8.15,12.72M666.16,82.47c-3.14-2-6.69-1.58-9.8,1.13-3.58,3.13-5.09,7.26-5.41,11.88-.9,13.12,6.31,24.55,20.35,30.16,20,8,40.35,8.13,60.6.37,1-.39,2-1,3.72-1.89-19-16.68-27.6-37.21-24.44-62-7.36-2.43-13.4-.57-19.67,3.21.41-5.7,2.33-10.37,6.57-13.17a43.37,43.37,0,0,1,12.82-5.46c2.51-.66,3.81-1.53,5-3.75,14-26.44,47.16-30.64,67.19-8.49a7.7,7.7,0,0,1,2,4.65c.12,31.43.1,62.86.1,94.29a8.86,8.86,0,0,1-.33,1.25c-.67-1.33-1.21-2.24-1.62-3.21a26.59,26.59,0,0,0-12.56-13.91c-3-1.57-5.44-4-8.34-6.18L745.75,127a20,20,0,0,1,3.67,2.23c4.42,4.24,8.83,8.51,13.07,12.94,16.69,17.43,22,38,17,61.49-.93,4.37-1.77,8.76-2.62,13.15-2.09,10.63-.79,21,1.6,31.49a96.56,96.56,0,0,1,1.91,19.32c.08,3.64-1.73,7.06-5.74,8.23s-7.66.51-10.64-2.5c-2.26-2.3-2.65-4.82-.09-7.62.69.89,1.12,1.89,1.88,2.34,1,.59,2.5,1.3,3.35.94,1.05-.44,2.35-1.94,2.33-3a15,15,0,0,0-1.37-6.65c-3.33-6.31-7-12.46-10.6-18.6-1.89-3.19-4.18-6.13-6-9.33-6.85-11.73-6.66-17.18.69-28.09-3.82-1.77-7.94-3.12-11.42-5.42-6.53-4.32-7.7-11.62-3.47-18.13,2.79-4.3,6.62-5.76,11.48-4.63-.74,2.29-1.93,4.58-2,6.92-.07,1.3,1.39,3,2.6,4,4.81,4,11.37,3.72,15.32-.45,3.18-3.36,4.75-7.59,3.67-12-1.35-5.52-2.93-11.17-5.59-16.13C759,147,750,139,741.53,130.65c-12.73,9.46-23.78,20-27,36-1,4.83,0,10.08.29,15.11a10,10,0,0,0,1.76,4.21c3.27,5.38,7.76,5.44,12.15-.08.58,2.68,1.82,5.42,1.55,8-.33,3.31-3.46,4.51-6.47,5.06-8.78,1.61-15.88-1.67-21.54-8.1C686.74,173.28,695.78,147.76,713,142a2.29,2.29,0,0,0,1.42-1.45c-7.21,0-14.45.45-21.61-.09-15.31-1.16-29.58-5.55-40.28-17.19-4.9-5.33-8.44-11.91-12.51-17.79a14.3,14.3,0,0,1-1.56,1.93c-3.32,3.23-7.59,2.71-10.08-1.17-.14-.21-.26-.44-.39-.66-4.51-7.9-4.51-7.9-12.86-6.72,3.18-9.93,15.74-11.24,26.08-2.38.22-1.87.5-3.48.6-5.09C643,72.32,667.66,59.15,685,66.67c14.11,6.12,17.9,28.68,6.65,39.16a36.37,36.37,0,0,1-3.9,2.75,65.8,65.8,0,0,0,.82-8.31c-.09-3.37-1.78-5.86-5.39-6.43-2.33-.36-4-.1-4.66,3-.83,4.17-3.62,5.93-7.86,5.58a13.89,13.89,0,0,1-10.09-5.61c-2.9-3.74-2.5-7.76,1-10.92,1.39-1.24,3-2.23,4.56-3.38" transform="translate(0.53 -20.17)"/></g></svg>